<svg width="235" height="55" viewBox="0 0 235 55" fill="none" xmlns="http://www.w3.org/2000/svg">
<path d="M233 0C234.105 1.38515e-06 235 0.895431 235 2V53C235 54.1046 234.105 55 233 55H2C0.895432 55 0 54.1046 0 53V2C7.40905e-07 0.895431 0.895431 0 2 0H233ZM3 1C1.89543 1 1 1.89543 1 3V52C1 53.1046 1.89543 54 3 54H53C54.1046 54 55 53.1046 55 52V3C55 1.89543 54.1046 1 53 1H3ZM148.02 15.4092C146.391 15.4092 144.932 15.6967 143.645 16.2725C142.357 16.8406 141.338 17.6406 140.588 18.6709C139.846 19.7011 139.475 20.9015 139.475 22.2725C139.475 23.9391 140.028 25.2766 141.134 26.2842C142.247 27.284 143.762 28.0301 145.679 28.5225L148.327 29.2041C149.16 29.4162 149.888 29.6589 150.509 29.9316C151.137 30.1968 151.626 30.5302 151.975 30.9316C152.323 31.3255 152.501 31.8257 152.509 32.4316C152.501 33.0983 152.3 33.6817 151.906 34.1816C151.512 34.6741 150.967 35.0605 150.27 35.3408C149.58 35.6135 148.777 35.75 147.86 35.75C146.982 35.75 146.187 35.6176 145.475 35.3525C144.77 35.0874 144.198 34.6853 143.759 34.1475C143.319 33.6096 143.069 32.9356 143.009 32.125H138.86C138.921 33.6704 139.323 34.9809 140.065 36.0566C140.815 37.1324 141.853 37.9511 143.179 38.5117C144.512 39.0723 146.084 39.3525 147.895 39.3525C149.758 39.3525 151.346 39.064 152.656 38.4883C153.974 37.905 154.982 37.0985 155.679 36.0684C156.376 35.0305 156.725 33.8295 156.725 32.4658C156.725 31.4583 156.535 30.5791 156.156 29.8291C155.777 29.0793 155.262 28.4394 154.61 27.9092C153.967 27.379 153.236 26.9392 152.418 26.5908C151.607 26.2424 150.762 25.9663 149.884 25.7617L147.702 25.2158C147.225 25.1022 146.751 24.9625 146.281 24.7959C145.812 24.6292 145.383 24.4241 144.997 24.1816C144.611 23.9317 144.304 23.6285 144.077 23.2725C143.858 22.9165 143.747 22.4964 143.747 22.0117C143.755 21.4284 143.925 20.9086 144.259 20.4541C144.592 19.9998 145.074 19.6401 145.702 19.375C146.331 19.11 147.084 18.9776 147.963 18.9775C149.213 18.9775 150.228 19.2536 151.009 19.8066C151.797 20.3597 152.244 21.1326 152.35 22.125H156.406C156.384 20.8144 156.016 19.655 155.304 18.6475C154.592 17.6325 153.61 16.8406 152.36 16.2725C151.118 15.6968 149.671 15.4092 148.02 15.4092ZM179.366 15.4092C177.329 15.4092 175.503 15.8824 173.89 16.8291C172.284 17.776 171.011 19.1439 170.071 20.9316C169.14 22.7119 168.673 24.8559 168.673 27.3633C168.673 29.8633 169.139 32.008 170.071 33.7959C171.011 35.576 172.284 36.943 173.89 37.8975C175.503 38.8443 177.329 39.3183 179.366 39.3184C181.404 39.3184 183.226 38.8444 184.832 37.8975C186.446 36.9505 187.719 35.5869 188.65 33.8066C189.59 32.0188 190.06 29.8708 190.06 27.3633C190.06 24.8559 189.59 22.7119 188.65 20.9316C187.719 19.1439 186.446 17.776 184.832 16.8291C183.226 15.8823 181.404 15.4092 179.366 15.4092ZM31.5342 39H27.3184V19.8291H27.1816L21.7383 23.3066V19.4434L27.5225 15.7275H31.5342V39ZM82.9775 39H88.1816L96.3867 15.7275H91.75L85.7041 34.0459H85.4658L79.4092 15.7275H74.7842L82.9775 39ZM99.4521 39H114.679V35.4658H103.668V29.1133H113.804V25.5791H103.668V19.2617H114.588V15.7275H99.4521V39ZM118.89 39H123.105V30.4775H127.396L131.969 39H136.673L131.64 29.7852C131.791 29.7241 131.939 29.6599 132.082 29.5908C133.309 28.9923 134.237 28.1475 134.866 27.0566C135.503 25.9583 135.821 24.6631 135.821 23.1709C135.821 21.6861 135.507 20.3861 134.878 19.2725C134.257 18.1513 133.336 17.2804 132.116 16.6592C130.904 16.038 129.404 15.7275 127.616 15.7275H118.89V39ZM160.483 39H164.699V15.7275H160.483V39ZM194.046 39H198.262V23.1475H198.454L209.421 39H213.171V15.7275H208.978V31.5908H208.772L197.818 15.7275H194.046V39ZM179.366 19.1934C180.631 19.1934 181.749 19.5079 182.719 20.1367C183.688 20.7579 184.446 21.678 184.991 22.8975C185.544 24.1095 185.821 25.5983 185.821 27.3633C185.821 29.1284 185.544 30.6211 184.991 31.8408C184.446 33.0529 183.688 33.9738 182.719 34.6025C181.749 35.2237 180.631 35.5342 179.366 35.5342C178.101 35.5341 176.984 35.2235 176.015 34.6025C175.045 33.9738 174.283 33.0529 173.73 31.8408C173.185 30.6211 172.912 29.1284 172.912 27.3633C172.912 25.5983 173.185 24.1095 173.73 22.8975C174.283 21.6779 175.045 20.7579 176.015 20.1367C176.984 19.508 178.101 19.1934 179.366 19.1934ZM126.969 19.25C128.022 19.25 128.881 19.4053 129.548 19.7158C130.214 20.0188 130.711 20.4658 131.037 21.0566C131.363 21.64 131.525 22.3451 131.525 23.1709C131.525 23.9965 131.363 24.6936 131.037 25.2617C130.719 25.8222 130.226 26.2505 129.56 26.5459C128.893 26.8337 128.037 26.9775 126.991 26.9775H123.105V19.25H126.969Z" fill="#cdcdcdff"/>
</svg>
