<svg version="1.1" xmlns="http://www.w3.org/2000/svg" xmlns:xlink="http://www.w3.org/1999/xlink" width="1952" height="938" viewBox="0,0,256,123.01042"><g fill="#ffffff" fill-rule="nonzero" stroke="none" stroke-width="1" stroke-linecap="butt" stroke-linejoin="miter" stroke-miterlimit="10" stroke-dasharray="" stroke-dashoffset="0" font-family="none" font-weight="none" font-size="none" text-anchor="none" style="mix-blend-mode: normal"><g transform="translate(0.02365,0.01016) scale(0.13115,0.13115)"><path d="M7.53301,2.03325c-2.66667,1.2 -4.66667,3.33334 -5.73334,6.13334c-1.06666,3.20001 -1.46666,66.66671 -1.46666,235.86641c0,217.867 0.13333,231.734 2.4,235.067c1.46666,2.4 125.59999,82.933 355.86699,231.067l353.733,227.466l332.937,-0.133c183.2,0 460.26,-0.4 615.73,-0.933l282.53,-0.8l2.94,-2.934c2.8,-2.8 2.8,-4 3.6,-56.8c0.8,-45.733 1.6,-189.2 1.06,-194.133c-0.26,-2.8 -631.86,-676.93341 -636.53,-679.33341c-4,-2.26667 -37.87,-2.40001 -653.6,-2.40001c-543.6,0.13333 -650.0003,0.4 -653.46699,1.86666zM1617,356.3l312,333.333l-0.4,90.267c-0.13,49.6 -0.67,99.867 -1.2,111.733l-0.8,21.467l-211.47,0.8c-116.26,0.533 -387.86,1.067 -603.46,1.2l-392.004,0.4l-213.333,-137.2c-117.333,-75.467 -274.133,-176.267 -348.267,-224l-135.0663,-86.8v-221.467c0,-121.733 0.4,-221.8664 0.9333,-222.2664c0.4,-0.5333 288.933,-0.9333 640.933,-0.9333l640.134,0.1333z"></path><path d="M137.666,262.833v174.667h40h40v-67.333v-67.334h37.2h37.2l48.533,66.934l48.534,67.066l48.266,0.4c26.534,0.134 48.267,0 48.267,-0.4c0,-0.266 -21.6,-30.533 -48.133,-66.933l-48.134,-66.4l48.8,-0.4l48.8,-0.267v-107.333v-107.3334h-40.666h-40.667v67.3334v67.333l-93.6,-0.266l-93.733,-0.4l-0.4,-67.067l-0.267,-66.9334h-40h-40z"></path><path d="M536.333,262.833v174.667h175.333h175.334v-174.667v-174.6664h-175.334h-175.333zM805.4,262.433l-0.4,94.4l-93.6,0.4l-93.734,0.267v-94.667v-94.666h94h94z"></path><path d="M1015.8,142.7l-39.467,54.533v78.8v78.8h-20h-20v80.667v80.667h40.667h40.67v-39.334v-39.333h119.33h119.33v39.333v39.334h40h40v-80.667v-80.667h-20h-20v-133.333v-133.3333h-120.53h-120.53zM1215.67,262.833v94l-78.94,0.4l-79.06,0.267v-63.867v-63.733l22.13,-30.933l22.13,-30.8l56.8,0.266l56.94,0.4z"></path><path d="M712.333,801.5v56l55.733,-0.267l55.6,-0.4v-34v-34l-43.066,-0.4l-43.067,-0.266l0.4,-8.4l0.4,-8.267l43.067,-0.4l42.933,-0.267v-12.666v-12.667h-56h-56zM797.666,822.167v8.666h-30h-30v-7.733c0,-4.267 0.4,-8.267 0.934,-8.667c0.4,-0.533 14,-0.933 30,-0.933h29.066z"></path><path d="M861.666,779.5v34l42.4,0.267l42.267,0.4l0.4,8.266l0.4,8.4h-42.8h-42.667v13.334v13.333h55.333h55.334v-56v-56h-12.667h-12.667v21.333v21.334h-30h-30v-21.334v-21.333h-12.666h-12.667z"></path><path d="M1035.4,762.967l-12.4,17.2v25.333v25.333h-6.67h-6.66v25.334v25.333h13.33h13.33v-12v-12h38h38v12v12h12.67h12.67v-25.333v-25.334h-6.67h-6.67v-42.666v-42.667l-38.26,0.133h-38.4zM1099,800.833v30h-25.33h-25.34v-19.733c0,-21.467 -0.66,-19.2 9.6,-33.333l5.2,-6.934h17.87h18z"></path><path d="M1175,779.5v34h42.67h42.66v8.667v8.666h-42.66h-42.67v13.334v13.333l55.73,-0.267l55.6,-0.4l0.4,-55.733l0.27,-55.6h-13.33h-13.34v21.333v21.334h-30h-30v-21.334v-21.333h-12.66h-12.67z"></path><path d="M1324.33,801.5v56h49.34h49.33v12.667v12.666h12.67h12.66v-26v-26h-6.66h-6.67v-42.666v-42.667h-12.67h-12.66v42.667v42.666h-8.67h-8.67v-42.666v-42.667h-12.66h-12.67v42.667v42.666h-8.67h-8.66v-42.666v-42.667h-12.67h-12.67z"></path><path d="M1477.67,801.5v56l55.73,-0.267l55.6,-0.4v-12.666v-12.667l-43.07,-0.4l-43.06,-0.267l0.4,-8.4l0.4,-8.266l43.06,-0.4l43.07,-0.267l-0.4,-12.4l-0.4,-12.267l-43.07,-0.4l-43.06,-0.266l0.4,-8.4l0.4,-8.267l43.06,-0.4l42.94,-0.267v-12.666v-12.667h-56h-56z"></path><path d="M1627,801.5v56h12.67h12.66v-43.333v-43.334h42.67h42.67v-12.666v-12.667h-55.34h-55.33z"></path><path d="M1775.27,801.1l0.4,55.733l55.73,0.4l55.6,0.267v-56v-56h-56h-56zM1861.4,801.1l0.27,29.733h-30h-30v-30v-30l29.73,0.267l29.6,0.4z"></path></g></g></svg>