<svg xmlns="http://www.w3.org/2000/svg" version="1.1" xmlns:xlink="http://www.w3.org/1999/xlink" xmlns:svgjs="http://svgjs.com/svgjs" id="svg-pattern-339" width="100%" height="100%"><defs><pattern x="0" y="0" width="50" height="50" patternUnits="userSpaceOnUse" id="pattern-339-layer-1"><g id="PatternRootContent1" transform="scale(1)"><rect class="fill0" width="50" height="50" fill="#161616"></rect>
<g class="fill1" fill="#3b3b3bff">
	<path d="M24.2,28.5l0.3-0.2c0.1,0,0.2,0,0.2,0.1c0,0.1,0,0.2-0.1,0.2l-0.3,0.2c0.1,0.1,0.1,0.2,0.1,0.3l-0.5,1
		c0,0,0,0,0,0c0,0,0,0,0,0l0.6-0.9c0.1-0.1,0.2-0.1,0.3-0.1v-0.3c0-0.1,0.1-0.2,0.2-0.2c0.1,0,0.2,0.1,0.2,0.2V29
		c0.1,0,0.2,0,0.3,0.1L26,30c0,0,0,0,0,0c0,0,0,0,0,0l-0.5-1c0-0.1,0-0.2,0.1-0.3l-0.3-0.2c-0.1,0-0.1-0.1-0.1-0.2
		c0-0.1,0.1-0.1,0.2-0.1l0.3,0.2c0-0.1,0.1-0.2,0.2-0.2l1.1-0.1c0,0,0,0,0,0c0,0,0,0,0,0L26,28.1c-0.1,0-0.2-0.1-0.2-0.2L25.5,28
		c-0.1,0-0.2,0-0.2-0.1c0-0.1,0-0.2,0.1-0.2l0.3-0.2c-0.1-0.1-0.1-0.2-0.1-0.3l0.5-1c0,0,0,0,0,0c0,0,0,0,0,0l-0.6,0.9
		c-0.1,0.1-0.2,0.1-0.3,0.1v0.3c0,0.1-0.1,0.2-0.2,0.2c-0.1,0-0.2-0.1-0.2-0.2v-0.3c-0.1,0-0.2,0-0.3-0.1L24,26.3c0,0,0,0,0,0
		c0,0,0,0,0,0l0.5,1c0,0.1,0,0.2-0.1,0.3l0.3,0.2c0.1,0,0.1,0.1,0.1,0.2c0,0.1-0.1,0.1-0.2,0.1l-0.3-0.2c0,0.1-0.1,0.2-0.2,0.2
		l-1.1,0.1c0,0,0,0,0,0c0,0,0,0,0,0l1.1,0.1C24.1,28.3,24.2,28.4,24.2,28.5z M25,27.8c0.2,0,0.3,0.1,0.3,0.3c0,0.2-0.1,0.3-0.3,0.3
		c-0.2,0-0.3-0.1-0.3-0.3C24.7,28,24.8,27.8,25,27.8z"></path>
	<path d="M37.9,21.7c-2.4-4.4-7.3-7.5-12.8-7.5c-5.6,0-10.4,3-12.8,7.5H37.9z"></path>
	<path d="M34,28.5l0.3-0.2c0.1,0,0.2,0,0.2,0.1c0,0.1,0,0.2-0.1,0.2l-0.3,0.2c0.1,0.1,0.1,0.2,0.1,0.3l-0.5,1
		c0,0,0,0,0,0c0,0,0,0,0,0l0.6-0.9c0.1-0.1,0.2-0.1,0.3-0.1v-0.3c0-0.1,0.1-0.2,0.2-0.2c0.1,0,0.2,0.1,0.2,0.2V29
		c0.1,0,0.2,0,0.3,0.1l0.6,0.9c0,0,0,0,0,0c0,0,0,0,0,0l-0.5-1c0-0.1,0-0.2,0.1-0.3l-0.3-0.2c-0.1,0-0.1-0.1-0.1-0.2
		c0-0.1,0.1-0.1,0.2-0.1l0.3,0.2c0-0.1,0.1-0.2,0.2-0.2l1.1-0.1c0,0,0,0,0,0c0,0,0,0,0,0l-1.1-0.1c-0.1,0-0.2-0.1-0.2-0.2L35.3,28
		c-0.1,0-0.2,0-0.2-0.1c0-0.1,0-0.2,0.1-0.2l0.3-0.2c-0.1-0.1-0.1-0.2-0.1-0.3l0.5-1c0,0,0,0,0,0c0,0,0,0,0,0l-0.6,0.9
		c-0.1,0.1-0.2,0.1-0.3,0.1v0.3c0,0.1-0.1,0.2-0.2,0.2c-0.1,0-0.2-0.1-0.2-0.2v-0.3c-0.1,0-0.2,0-0.3-0.1l-0.6-0.9c0,0,0,0,0,0
		c0,0,0,0,0,0l0.5,1c0,0.1,0,0.2-0.1,0.3l0.3,0.2c0.1,0,0.1,0.1,0.1,0.2c0,0.1-0.1,0.1-0.2,0.1L34,27.9c0,0.1-0.1,0.2-0.2,0.2
		l-1.1,0.1c0,0,0,0,0,0c0,0,0,0,0,0l1.1,0.1C33.9,28.3,34,28.4,34,28.5z M34.8,27.8c0.2,0,0.3,0.1,0.3,0.3c0,0.2-0.1,0.3-0.3,0.3
		c-0.2,0-0.3-0.1-0.3-0.3C34.5,28,34.6,27.8,34.8,27.8z"></path>
	<path d="M13,28.2C13,28.2,13.1,28.2,13,28.2l1.2,0.1c0.1,0,0.2,0.1,0.2,0.2l0.3-0.2c0.1,0,0.2,0,0.2,0.1
		c0,0.1,0,0.2-0.1,0.2l-0.3,0.2c0.1,0.1,0.1,0.2,0.1,0.3l-0.5,1c0,0,0,0,0,0c0,0,0,0,0,0l0.6-0.9C14.8,29,14.9,29,15,29v-0.3
		c0-0.1,0.1-0.2,0.2-0.2c0.1,0,0.2,0.1,0.2,0.2V29c0.1,0,0.2,0,0.3,0.1l0.6,0.9c0,0,0,0,0,0c0,0,0,0,0,0l-0.5-1c0-0.1,0-0.2,0.1-0.3
		l-0.3-0.2c-0.1,0-0.1-0.1-0.1-0.2c0-0.1,0.1-0.1,0.2-0.1l0.3,0.2c0-0.1,0.1-0.2,0.2-0.2l1.1-0.1c0,0,0,0,0,0c0,0,0,0,0,0l-1.1-0.1
		c-0.1,0-0.2-0.1-0.2-0.2L15.7,28c-0.1,0-0.2,0-0.2-0.1c0-0.1,0-0.2,0.1-0.2l0.3-0.2c-0.1-0.1-0.1-0.2-0.1-0.3l0.5-1c0,0,0,0,0,0
		c0,0,0,0,0,0l-0.6,0.9c-0.1,0.1-0.2,0.1-0.3,0.1v0.3c0,0.1-0.1,0.2-0.2,0.2c-0.1,0-0.2-0.1-0.2-0.2v-0.3c-0.1,0-0.2,0-0.3-0.1
		l-0.6-0.9c0,0,0,0,0,0c0,0,0,0,0,0l0.5,1c0,0.1,0,0.2-0.1,0.3l0.3,0.2c0.1,0,0.1,0.1,0.1,0.2c0,0.1-0.1,0.1-0.2,0.1l-0.3-0.2
		c0,0.1-0.1,0.2-0.2,0.2L13,28.2C13.1,28.2,13,28.2,13,28.2z M15.2,27.8c0.2,0,0.3,0.1,0.3,0.3c0,0.2-0.1,0.3-0.3,0.3
		c-0.2,0-0.3-0.1-0.3-0.3C14.9,28,15,27.8,15.2,27.8z"></path>
	<path d="M10.5,28.2c0,1.9,0.4,3.8,1.2,5.5h26.7c0.7-1.7,1.2-3.5,1.2-5.5c0-1.9-0.4-3.7-1.1-5.4H11.6
		C10.9,24.4,10.5,26.3,10.5,28.2z M31.3,29.9c-0.1,0-0.1-0.1-0.1-0.1c0-0.1,0.1-0.1,0.1-0.1l0.4,0.1l0.6-0.3l-0.4-0.1
		c-0.1,0-0.1-0.1-0.1-0.2c0-0.1,0.1-0.1,0.2-0.1l0.6,0.2c0,0,0.1,0,0.1,0.1l0.8-0.5l-0.9-0.4c0,0-0.3,0-0.3-0.1
		c0-0.2,0.2-0.1,0.3-0.1l0.9-0.4l-0.8-0.5c0,0,0,0.1-0.1,0.1l-0.6,0.2c-0.1,0-0.2,0-0.2-0.1c0-0.1,0-0.2,0.1-0.2l0.4-0.1l-0.6-0.3
		l-0.4,0.1c-0.1,0-0.1,0-0.1-0.1c0-0.1,0-0.1,0.1-0.1l0.2-0.1l-0.4-0.2c-0.1,0-0.1-0.1-0.1-0.2c0-0.1,0.1-0.1,0.2-0.1l0.4,0.2
		L31.6,26c0-0.1,0-0.1,0.1-0.1c0.1,0,0.1,0,0.1,0.1l0.1,0.4l0.6,0.3l-0.1-0.4c0-0.1,0-0.2,0.1-0.2c0.1,0,0.2,0,0.2,0.1l0.2,0.6
		c0,0,0,0.1,0,0.1l0.8,0.5l0-1c0,0-0.2-0.3,0-0.3c0,0,0,0,0,0c0,0,0,0,0,0c0.1-0.1,0.2,0.1,0.2,0.2l0.8,0.5v-1c0,0-0.1,0-0.1,0
		l-0.5-0.5c-0.1-0.1-0.1-0.2,0-0.2c0.1-0.1,0.2-0.1,0.2,0l0.3,0.3v-0.7l-0.3-0.3c0,0,0-0.1,0-0.2c0,0,0.1,0,0.2,0l0.1,0.1V24
		c0-0.1,0.1-0.2,0.2-0.2c0.1,0,0.2,0.1,0.2,0.2v0.4l0.1-0.1c0,0,0.1,0,0.2,0s0,0.1,0,0.2L35,24.7v0.6l0.3-0.3c0.1-0.1,0.2-0.1,0.2,0
		c0.1,0.1,0.1,0.2,0,0.2l-0.5,0.5c0,0-0.1,0-0.1,0v1l0.8-0.5c0,0,0.1-0.3,0.2-0.2c0,0,0,0,0,0c0,0,0,0,0,0c0.2,0,0,0.3,0,0.3l0,1
		l0.8-0.5c0,0,0-0.1,0-0.1l0.2-0.6c0-0.1,0.1-0.1,0.2-0.1c0.1,0,0.1,0.1,0.1,0.2l-0.1,0.4l0.6-0.3l0.1-0.4c0-0.1,0.1-0.1,0.1-0.1
		c0.1,0,0.1,0.1,0.1,0.1l0,0.2l0.4-0.2c0.1,0,0.2,0,0.2,0.1c0,0.1,0,0.2-0.1,0.2l-0.4,0.2l0.2,0.1c0.1,0,0.1,0.1,0.1,0.1
		c0,0.1-0.1,0.1-0.1,0.1l-0.4-0.1l-0.6,0.3l0.4,0.1c0.1,0,0.1,0.1,0.1,0.2c0,0.1-0.1,0.1-0.2,0.1L37,27.2c0,0-0.1,0-0.1-0.1
		l-0.8,0.5L37,28c0,0,0.3,0,0.3,0.1c0,0.2-0.2,0.1-0.3,0.1l-0.9,0.4l0.8,0.5c0,0,0-0.1,0.1-0.1l0.6-0.2c0.1,0,0.2,0,0.2,0.1
		c0,0.1,0,0.2-0.1,0.2l-0.4,0.1l0.6,0.3l0.4-0.1c0.1,0,0.1,0,0.1,0.1c0,0.1,0,0.1-0.1,0.1l-0.2,0.1l0.4,0.2c0.1,0,0.1,0.1,0.1,0.2
		c0,0.1-0.1,0.1-0.2,0.1L38,30.2l0,0.2c0,0.1,0,0.1-0.1,0.1c-0.1,0-0.1,0-0.1-0.1L37.7,30l-0.6-0.3l0.1,0.4c0,0.1,0,0.2-0.1,0.2
		c-0.1,0-0.2,0-0.2-0.1l-0.2-0.6c0,0,0-0.1,0-0.1L36,29l0,1c0,0,0.2,0.3,0,0.3c0,0,0,0,0,0c0,0,0,0,0,0c-0.1,0.1-0.2-0.1-0.2-0.2
		L35,29.6v1c0,0,0.1,0,0.1,0l0.5,0.5c0.1,0.1,0.1,0.2,0,0.2c-0.1,0.1-0.2,0.1-0.2,0L35,31v0.6l0.3,0.3c0,0,0,0.1,0,0.2
		c0,0-0.1,0-0.2,0L35,31.9v0.4c0,0.1-0.1,0.2-0.2,0.2c-0.1,0-0.2-0.1-0.2-0.2v-0.4l-0.1,0.1c0,0-0.1,0-0.2,0c0,0,0-0.1,0-0.2
		l0.3-0.3V31l-0.3,0.3c-0.1,0.1-0.2,0.1-0.2,0c-0.1-0.1-0.1-0.2,0-0.2l0.5-0.5c0,0,0.1,0,0.1,0v-1l-0.8,0.5c0,0-0.1,0.3-0.2,0.2
		c0,0,0,0,0,0c0,0,0,0,0,0c-0.2,0,0-0.3,0-0.3l0-1l-0.8,0.5c0,0,0,0.1,0,0.1l-0.2,0.6c0,0.1-0.1,0.1-0.2,0.1c-0.1,0-0.1-0.1-0.1-0.2
		l0.1-0.4L31.9,30l-0.1,0.4c0,0.1-0.1,0.1-0.1,0.1c-0.1,0-0.1-0.1-0.1-0.1l0.1-0.2l-0.4,0.2c-0.1,0-0.2,0-0.2-0.1
		c0-0.1,0-0.2,0.1-0.2l0.4-0.2L31.3,29.9z M21.5,29.9c-0.1,0-0.1-0.1-0.1-0.1c0-0.1,0.1-0.1,0.1-0.1l0.4,0.1l0.6-0.3L22,29.3
		c-0.1,0-0.1-0.1-0.1-0.2c0-0.1,0.1-0.1,0.2-0.1l0.6,0.2c0,0,0.1,0,0.1,0.1l0.8-0.5l-0.9-0.4c0,0-0.3,0-0.3-0.1
		c0-0.2,0.2-0.1,0.3-0.1l0.9-0.4l-0.8-0.5c0,0,0,0.1-0.1,0.1l-0.6,0.2c-0.1,0-0.2,0-0.2-0.1c0-0.1,0-0.2,0.1-0.2l0.4-0.1l-0.6-0.3
		l-0.4,0.1c-0.1,0-0.1,0-0.1-0.1c0-0.1,0-0.1,0.1-0.1l0.2-0.1l-0.4-0.2c-0.1,0-0.1-0.1-0.1-0.2c0-0.1,0.1-0.1,0.2-0.1l0.4,0.2l0-0.2
		c0-0.1,0-0.1,0.1-0.1c0.1,0,0.1,0,0.1,0.1l0.1,0.4l0.6,0.3l-0.1-0.4c0-0.1,0-0.2,0.1-0.2c0.1,0,0.2,0,0.2,0.1l0.2,0.6
		c0,0,0,0.1,0,0.1l0.8,0.5l0-1c0,0-0.2-0.3,0-0.3c0,0,0,0,0,0c0,0,0,0,0,0c0.1-0.1,0.2,0.1,0.2,0.2l0.8,0.5v-1c0,0-0.1,0-0.1,0
		l-0.5-0.5c-0.1-0.1-0.1-0.2,0-0.2c0.1-0.1,0.2-0.1,0.2,0l0.3,0.3v-0.6l-0.3-0.3c0,0,0-0.1,0-0.2c0,0,0.1,0,0.2,0l0.1,0.1V24
		c0-0.1,0.1-0.2,0.2-0.2c0.1,0,0.2,0.1,0.2,0.2v0.4l0.1-0.1c0,0,0.1,0,0.2,0c0,0,0,0.1,0,0.2l-0.3,0.3v0.6l0.3-0.3
		c0.1-0.1,0.2-0.1,0.2,0c0.1,0.1,0.1,0.2,0,0.2l-0.5,0.5c0,0-0.1,0-0.1,0v1l0.8-0.5c0,0,0.1-0.3,0.2-0.2c0,0,0,0,0,0c0,0,0,0,0,0
		c0.2,0,0,0.3,0,0.3l0,1l0.8-0.5c0,0,0-0.1,0-0.1l0.2-0.6c0-0.1,0.1-0.1,0.2-0.1c0.1,0,0.1,0.1,0.1,0.2l-0.1,0.4l0.6-0.3l0.1-0.4
		c0-0.1,0.1-0.1,0.1-0.1c0.1,0,0.1,0.1,0.1,0.1l0,0.2l0.4-0.2c0.1,0,0.2,0,0.2,0.1c0,0.1,0,0.2-0.1,0.2l-0.4,0.2l0.2,0.1
		c0.1,0,0.1,0.1,0.1,0.1c0,0.1-0.1,0.1-0.1,0.1l-0.4-0.1l-0.6,0.3L28,27c0.1,0,0.1,0.1,0.1,0.2c0,0.1-0.1,0.1-0.2,0.1l-0.6-0.2
		c0,0-0.1,0-0.1-0.1l-0.8,0.5l0.9,0.4c0,0,0.3,0,0.3,0.1c0,0.2-0.2,0.1-0.3,0.1l-0.9,0.4l0.8,0.5c0,0,0-0.1,0.1-0.1l0.6-0.2
		c0.1,0,0.2,0,0.2,0.1c0,0.1,0,0.2-0.1,0.2l-0.4,0.1l0.6,0.3l0.4-0.1c0.1,0,0.1,0,0.1,0.1c0,0.1,0,0.1-0.1,0.1l-0.2,0.1l0.4,0.2
		c0.1,0,0.1,0.1,0.1,0.2c0,0.1-0.1,0.1-0.2,0.1l-0.4-0.2l0,0.2c0,0.1,0,0.1-0.1,0.1c-0.1,0-0.1,0-0.1-0.1L27.9,30l-0.6-0.3l0.1,0.4
		c0,0.1,0,0.2-0.1,0.2c-0.1,0-0.2,0-0.2-0.1L27,29.6c0,0,0-0.1,0-0.1L26.2,29l0,1c0,0,0.2,0.3,0,0.3c0,0,0,0,0,0c0,0,0,0,0,0
		c-0.1,0.1-0.2-0.1-0.2-0.2l-0.8-0.5v1c0,0,0.1,0,0.1,0l0.5,0.5c0.1,0.1,0.1,0.2,0,0.2c-0.1,0.1-0.2,0.1-0.2,0L25.2,31v0.6l0.3,0.3
		c0,0,0,0.1,0,0.2c0,0-0.1,0-0.2,0l-0.1-0.1v0.4c0,0.1-0.1,0.2-0.2,0.2c-0.1,0-0.2-0.1-0.2-0.2v-0.4l-0.1,0.1c0,0-0.1,0-0.2,0
		c0,0,0-0.1,0-0.2l0.3-0.3V31l-0.3,0.3c-0.1,0.1-0.2,0.1-0.2,0c-0.1-0.1-0.1-0.2,0-0.2l0.5-0.5c0,0,0.1,0,0.1,0v-1L24,30.1
		c0,0-0.1,0.3-0.2,0.2c0,0,0,0,0,0c0,0,0,0,0,0c-0.2,0,0-0.3,0-0.3l0-1L23,29.5c0,0,0,0.1,0,0.1l-0.2,0.6c0,0.1-0.1,0.1-0.2,0.1
		c-0.1,0-0.1-0.1-0.1-0.2l0.1-0.4L22.1,30L22,30.4c0,0.1-0.1,0.1-0.1,0.1c-0.1,0-0.1-0.1-0.1-0.1l0-0.2l-0.4,0.2
		c-0.1,0-0.2,0-0.2-0.1c0-0.1,0-0.2,0.1-0.2l0.4-0.2L21.5,29.9z M12,25.8c0.1,0,0.1,0,0.1,0.1l0.1,0.4l0.6,0.3l-0.1-0.4
		c0-0.1,0-0.2,0.1-0.2c0.1,0,0.2,0,0.2,0.1l0.2,0.6c0,0,0,0.1,0,0.1l0.8,0.5l0-1c0,0-0.2-0.3,0-0.3c0,0,0,0,0,0c0,0,0,0,0,0
		c0.1-0.1,0.2,0.1,0.2,0.2l0.8,0.5v-1c0,0-0.1,0-0.1,0l-0.5-0.5c-0.1-0.1-0.1-0.2,0-0.2c0.1-0.1,0.2-0.1,0.2,0l0.3,0.3v-0.7
		l-0.3-0.3c0,0,0-0.1,0-0.2c0,0,0.1,0,0.2,0l0.1,0.1V24c0-0.1,0.1-0.2,0.2-0.2c0.1,0,0.2,0.1,0.2,0.2v0.4l0.1-0.1c0,0,0.1,0,0.2,0
		c0,0,0,0.1,0,0.2l-0.3,0.3v0.7l0.3-0.3c0.1-0.1,0.2-0.1,0.2,0c0.1,0.1,0.1,0.2,0,0.2l-0.5,0.5c0,0-0.1,0-0.1,0v1l0.8-0.5
		c0,0,0.1-0.3,0.2-0.2c0,0,0,0,0,0c0,0,0,0,0,0c0.2,0,0,0.3,0,0.3l0,1l0.8-0.5c0,0,0-0.1,0-0.1l0.2-0.6c0-0.1,0.1-0.1,0.2-0.1
		c0.1,0,0.1,0.1,0.1,0.2l-0.1,0.4l0.6-0.3l0.1-0.4c0-0.1,0.1-0.1,0.1-0.1c0.1,0,0.1,0.1,0.1,0.1l0,0.2l0.4-0.2c0.1,0,0.2,0,0.2,0.1
		c0,0.1,0,0.2-0.1,0.2l-0.4,0.2l0.2,0.1c0.1,0,0.1,0.1,0.1,0.1c0,0.1-0.1,0.1-0.1,0.1l-0.4-0.1l-0.6,0.3l0.4,0.1
		c0.1,0,0.1,0.1,0.1,0.2c0,0.1-0.1,0.1-0.2,0.1l-0.6-0.2c0,0-0.1,0-0.1-0.1l-0.8,0.5l0.9,0.4c0,0,0.3,0,0.3,0.1
		c0,0.2-0.2,0.1-0.3,0.1l-0.9,0.4l0.8,0.5c0,0,0-0.1,0.1-0.1l0.6-0.2c0.1,0,0.2,0,0.2,0.1c0,0.1,0,0.2-0.1,0.2l-0.4,0.1l0.6,0.3
		l0.4-0.1c0.1,0,0.1,0,0.1,0.1c0,0.1,0,0.1-0.1,0.1l-0.2,0.1l0.4,0.2c0.1,0,0.1,0.1,0.1,0.2c0,0.1-0.1,0.1-0.2,0.1l-0.4-0.2l0,0.2
		c0,0.1,0,0.1-0.1,0.1c-0.1,0-0.1,0-0.1-0.1L18.1,30l-0.6-0.3l0.1,0.4c0,0.1,0,0.2-0.1,0.2c-0.1,0-0.2,0-0.2-0.1l-0.2-0.6
		c0,0,0-0.1,0-0.1L16.3,29l0,1c0,0,0.2,0.3,0,0.3c0,0,0,0,0,0c0,0,0,0,0,0c-0.1,0.1-0.2-0.1-0.2-0.2l-0.8-0.5v1c0,0,0.1,0,0.1,0
		l0.5,0.5c0.1,0.1,0.1,0.2,0,0.2c-0.1,0.1-0.2,0.1-0.2,0L15.3,31v0.6l0.3,0.3c0,0,0,0.1,0,0.2c0,0-0.1,0-0.2,0l-0.1-0.1v0.4
		c0,0.1-0.1,0.2-0.2,0.2c-0.1,0-0.2-0.1-0.2-0.2v-0.4l-0.1,0.1c0,0-0.1,0-0.2,0c0,0,0-0.1,0-0.2l0.3-0.3V31l-0.3,0.3
		c-0.1,0.1-0.2,0.1-0.2,0c-0.1-0.1-0.1-0.2,0-0.2l0.5-0.5c0,0,0.1,0,0.1,0v-1l-0.8,0.5c0,0-0.1,0.3-0.2,0.2c0,0,0,0,0,0c0,0,0,0,0,0
		c-0.2,0,0-0.3,0-0.3l0-1l-0.8,0.5c0,0,0,0.1,0,0.1l-0.2,0.6c0,0.1-0.1,0.1-0.2,0.1c-0.1,0-0.1-0.1-0.1-0.2l0.1-0.4L12.3,30
		l-0.1,0.4c0,0.1-0.1,0.1-0.1,0.1c-0.1,0-0.1-0.1-0.1-0.1l0.1-0.2l-0.4,0.2c-0.1,0-0.2,0-0.2-0.1c0-0.1,0-0.2,0.1-0.2l0.4-0.2
		l-0.2-0.1c-0.1,0-0.1-0.1-0.1-0.1c0-0.1,0.1-0.1,0.1-0.1l0.4,0.1l0.6-0.3l-0.4-0.1c-0.1,0-0.1-0.1-0.1-0.2c0-0.1,0.1-0.1,0.2-0.1
		l0.6,0.2c0,0,0.1,0,0.1,0.1l0.8-0.5L13,28.3c0,0-0.3,0-0.3-0.1c0-0.2,0.2-0.1,0.3-0.1l0.9-0.4L13,27.1c0,0,0,0.1-0.1,0.1l-0.6,0.2
		c-0.1,0-0.2,0-0.2-0.1c0-0.1,0-0.2,0.1-0.2l0.4-0.1l-0.6-0.3l-0.4,0.1c-0.1,0-0.1,0-0.1-0.1c0-0.1,0-0.1,0.1-0.1l0.2-0.1l-0.4-0.2
		c-0.1,0-0.1-0.1-0.1-0.2c0-0.1,0.1-0.1,0.2-0.1l0.4,0.2L12,26C11.9,25.9,12,25.9,12,25.8z"></path>
	<path d="M28,13.1l-0.2-0.9l-0.2-0.9l-0.2-0.9h-1.1H26c0.4-0.3,0.6-0.8,0.6-1.2c0-0.6-0.5-1.1-1.1-1.2V0h-1v8
		c-0.5,0.2-0.8,0.6-0.8,1.1c0,0.4,0.2,0.9,0.6,1.2H24h-1.1l-0.2,0.9l-0.2,0.9l-0.2,0.9l-0.2,0.9c0.2-0.1,0.5-0.1,0.7-0.2
		c0.2,0,0.5-0.7,0.7-0.7c0.3,0,0.5,0.5,0.8,0.5c0.3,0,0.5-0.5,0.8-0.5v0c0,0,0,0,0,0c0,0,0,0,0,0v0c0.3,0,0.5,0.5,0.8,0.5
		c0.3,0,0.5-0.6,0.8-0.5c0.3,0,0.5,0.7,0.7,0.7c0.2,0,0.5,0.1,0.7,0.2L28,13.1z M23.8,9.2c0-0.4,0.3-0.7,0.7-0.9v0.2h1V8.1
		c0.5,0.1,0.9,0.5,0.9,1c0,0.4-0.3,1-0.7,1.2h-0.6h0h0h0h-0.6C24.1,10.1,23.8,9.6,23.8,9.2z"></path>
	<path d="M37.8,34.7H12.2c2.4,4.2,7,7.2,12.3,7.4V50h1v-7.9C30.8,41.9,35.5,39,37.8,34.7z"></path>
	<path d="M40.7,0C40.7,0,40.7,0,40.7,0l-0.3,0v0.4L40.7,0z"></path>
	<path d="M49.8,0.4V0h-0.4c0,0,0.1,0,0.1,0L49.8,0.4z"></path>
	<path d="M41.3,1.3C41.3,1.3,41.2,1.3,41.3,1.3l-0.7,1c-0.1,0.1-0.2,0.1-0.3,0.1v0.3c0,0.1-0.1,0.2-0.2,0.2
		c-0.1,0-0.2-0.1-0.2-0.2V2.3c-0.1,0-0.2,0-0.3-0.1l-0.6-0.9c0,0,0,0,0,0c0,0,0,0,0,0l0.5,1c0,0.1,0,0.2-0.1,0.3l0.3,0.2
		c0.1,0,0.1,0.1,0.1,0.2c0,0.1-0.1,0.1-0.2,0.1l-0.3-0.2c0,0.1-0.1,0.2-0.2,0.2l-1.1,0.1c0,0,0,0,0,0c0,0,0,0,0,0l1.1,0.1
		c0.1,0,0.2,0.1,0.2,0.2l0.3-0.2c0.1,0,0.2,0,0.2,0.1c0,0.1,0,0.2-0.1,0.2l-0.3,0.2c0.1,0.1,0.1,0.2,0.1,0.3l-0.5,1c0,0,0,0,0,0
		c0,0,0,0,0,0l0.6-0.9C39.8,4,39.9,4,40,4V3.7c0-0.1,0.1-0.2,0.2-0.2c0.1,0,0.2,0.1,0.2,0.2V4c0.1,0,0.2,0,0.3,0.1L41.2,5
		c0,0,0,0,0,0c0,0,0,0,0,0l-0.5-1c0-0.1,0-0.2,0.1-0.3l-0.3-0.2c-0.1,0-0.1-0.1-0.1-0.2c0-0.1,0.1-0.1,0.2-0.1L41,3.5
		c0-0.1,0.1-0.2,0.2-0.2l1.1-0.1c0,0,0,0,0,0c0,0,0,0,0,0l-1.1-0.1C41.1,3.1,41,3,41,2.9L40.7,3c-0.1,0-0.2,0-0.2-0.1
		c0-0.1,0-0.2,0.1-0.2l0.3-0.2c-0.1-0.1-0.1-0.2-0.1-0.3L41.3,1.3C41.3,1.3,41.3,1.3,41.3,1.3z M40.5,3.2c0,0.2-0.1,0.3-0.3,0.3
		c-0.2,0-0.3-0.1-0.3-0.3c0-0.2,0.2-0.3,0.3-0.3C40.4,2.8,40.5,3,40.5,3.2z"></path>
	<path d="M49.8,2.6V2.3c-0.1,0-0.2,0-0.3-0.1L49,1.3c0,0,0,0,0,0c0,0,0,0,0,0l0.5,1c0,0.1,0,0.2-0.1,0.3l0.3,0.2
		c0.1,0,0.1,0.1,0.1,0.2c0,0.1-0.1,0.1-0.2,0.1l-0.3-0.2c0,0.1-0.1,0.2-0.2,0.2l-1.1,0.1c0,0,0,0,0,0c0,0,0,0,0,0L49,3.3
		c0.1,0,0.2,0.1,0.2,0.2l0.3-0.2c0.1,0,0.2,0,0.2,0.1c0,0.1,0,0.2-0.1,0.2l-0.3,0.2c0.1,0.1,0.1,0.2,0.1,0.3l-0.5,1c0,0,0,0,0,0
		c0,0,0,0,0,0l0.6-0.9C49.7,4,49.8,4,49.8,4V3.7c0-0.1,0.1-0.2,0.2-0.2v0c-0.2,0-0.3-0.1-0.3-0.3c0-0.2,0.2-0.3,0.3-0.3v0
		C49.9,2.8,49.8,2.7,49.8,2.6z"></path>
	<path d="M40,0.4V0h-0.4c0,0,0.1,0,0.1,0L40,0.4z"></path>
	<path d="M49.8,7.3V6.9l-0.1,0.1c0,0-0.1,0-0.2,0c0,0,0-0.1,0-0.2l0.3-0.3V6l-0.3,0.3c-0.1,0.1-0.2,0.1-0.2,0
		c-0.1-0.1-0.1-0.2,0-0.2l0.5-0.5c0,0,0.1,0,0.1,0v-1L49,5.1c0,0-0.1,0.3-0.2,0.2c0,0,0,0,0,0c0,0,0,0,0,0c-0.2,0,0-0.3,0-0.3l0-1
		L48,4.5c0,0,0,0.1,0,0.1l-0.2,0.6c0,0.1-0.1,0.1-0.2,0.1c-0.1,0-0.1-0.1-0.1-0.2l0.1-0.4L47.1,5L47,5.4c0,0.1-0.1,0.1-0.1,0.1
		c-0.1,0-0.1-0.1-0.1-0.1l0-0.2l-0.4,0.2c-0.1,0-0.2,0-0.2-0.1c0-0.1,0-0.2,0.1-0.2l0.4-0.2l-0.2-0.1c-0.1,0-0.1-0.1-0.1-0.1
		c0-0.1,0.1-0.1,0.1-0.1l0.4,0.1l0.6-0.3L47,4.3c-0.1,0-0.1-0.1-0.1-0.2C46.9,4,47,4,47.1,4l0.6,0.2c0,0,0.1,0,0.1,0.1l0.8-0.5
		l-0.9-0.4c0,0-0.3,0-0.3-0.1c0-0.2,0.2-0.1,0.3-0.1l0.9-0.4l-0.8-0.5c0,0,0,0.1-0.1,0.1l-0.6,0.2c-0.1,0-0.2,0-0.2-0.1
		c0-0.1,0-0.2,0.1-0.2l0.4-0.1l-0.6-0.3l-0.4,0.1c-0.1,0-0.1,0-0.1-0.1c0-0.1,0-0.1,0.1-0.1l0.2-0.1l-0.4-0.2
		c-0.1,0-0.1-0.1-0.1-0.2c0-0.1,0.1-0.1,0.2-0.1l0.4,0.2l0-0.2c0-0.1,0-0.1,0.1-0.1c0.1,0,0.1,0,0.1,0.1l0.1,0.4l0.6,0.3l-0.1-0.4
		c0-0.1,0-0.2,0.1-0.2c0.1,0,0.2,0,0.2,0.1L48,1.8c0,0,0,0.1,0,0.1l0.8,0.5l0-1c0,0-0.2-0.3,0-0.3c0,0,0,0,0,0c0,0,0,0,0,0
		C48.9,1,49,1.2,49,1.2l0.8,0.5v-1c0,0-0.1,0-0.1,0l-0.5-0.5c-0.1-0.1-0.1-0.2,0-0.2c0,0,0.1,0,0.1,0h-8.6c0,0,0.1,0,0.1,0
		c0.1,0.1,0.1,0.2,0,0.2l-0.5,0.5c0,0-0.1,0-0.1,0v1l0.8-0.5c0,0,0.1-0.3,0.2-0.2c0,0,0,0,0,0c0,0,0,0,0,0c0.2,0,0,0.3,0,0.3l0,1
		l0.8-0.5c0,0,0-0.1,0-0.1l0.2-0.6C42.4,1,42.4,1,42.5,1c0.1,0,0.1,0.1,0.1,0.2l-0.1,0.4l0.6-0.3l0.1-0.4c0-0.1,0.1-0.1,0.1-0.1
		c0.1,0,0.1,0.1,0.1,0.1l0,0.2L43.7,1c0.1,0,0.2,0,0.2,0.1c0,0.1,0,0.2-0.1,0.2l-0.4,0.2l0.2,0.1c0.1,0,0.1,0.1,0.1,0.1
		c0,0.1-0.1,0.1-0.1,0.1l-0.4-0.1l-0.6,0.3L43.1,2c0.1,0,0.1,0.1,0.1,0.2c0,0.1-0.1,0.1-0.2,0.1l-0.6-0.2c0,0-0.1,0-0.1-0.1
		l-0.8,0.5L42.4,3c0,0,0.3,0,0.3,0.1c0,0.2-0.2,0.1-0.3,0.1l-0.9,0.4l0.8,0.5c0,0,0-0.1,0.1-0.1L43.1,4c0.1,0,0.2,0,0.2,0.1
		c0,0.1,0,0.2-0.1,0.2l-0.4,0.1l0.6,0.3l0.4-0.1c0.1,0,0.1,0,0.1,0.1c0,0.1,0,0.1-0.1,0.1l-0.2,0.1l0.4,0.2c0.1,0,0.1,0.1,0.1,0.2
		c0,0.1-0.1,0.1-0.2,0.1l-0.4-0.2l0,0.2c0,0.1,0,0.1-0.1,0.1c-0.1,0-0.1,0-0.1-0.1L43.1,5l-0.6-0.3l0.1,0.4c0,0.1,0,0.2-0.1,0.2
		c-0.1,0-0.2,0-0.2-0.1l-0.2-0.6c0,0,0-0.1,0-0.1L41.3,4l0,1c0,0,0.2,0.3,0,0.3c0,0,0,0,0,0c0,0,0,0,0,0c-0.1,0.1-0.2-0.1-0.2-0.2
		l-0.8-0.5v1c0,0,0.1,0,0.1,0l0.5,0.5c0.1,0.1,0.1,0.2,0,0.2c-0.1,0.1-0.2,0.1-0.2,0L40.3,6v0.6l0.3,0.3c0,0,0,0.1,0,0.2
		c0,0-0.1,0-0.2,0l-0.1-0.1v0.4c0,0.1-0.1,0.2-0.2,0.2c-0.1,0-0.2-0.1-0.2-0.2V6.9l-0.1,0.1c0,0-0.1,0-0.2,0c0,0,0-0.1,0-0.2L40,6.6
		V6l-0.3,0.3c-0.1,0.1-0.2,0.1-0.2,0c-0.1-0.1-0.1-0.2,0-0.2l0.5-0.5c0,0,0.1,0,0.1,0v-1l-0.8,0.5c0,0-0.1,0.3-0.2,0.2c0,0,0,0,0,0
		c0,0,0,0,0,0c-0.2,0,0-0.3,0-0.3l0-1l-0.8,0.5c0,0,0,0.1,0,0.1l-0.2,0.6c0,0.1-0.1,0.1-0.2,0.1c-0.1,0-0.1-0.1-0.1-0.2l0.1-0.4
		L37.3,5l-0.1,0.4c0,0.1-0.1,0.1-0.1,0.1c-0.1,0-0.1-0.1-0.1-0.1L37,5.2l-0.4,0.2c-0.1,0-0.2,0-0.2-0.1c0-0.1,0-0.2,0.1-0.2l0.4-0.2
		l-0.2-0.1c-0.1,0-0.1-0.1-0.1-0.1c0-0.1,0.1-0.1,0.1-0.1l0.4,0.1l0.6-0.3l-0.4-0.1c-0.1,0-0.1-0.1-0.1-0.2C37.1,4,37.2,4,37.3,4
		L38,4.2c0,0,0.1,0,0.1,0.1l0.8-0.5L38,3.3c0,0-0.3,0-0.3-0.1C37.7,3,38,3.1,38,3l0.9-0.4L38,2.1c0,0,0,0.1-0.1,0.1l-0.6,0.2
		c-0.1,0-0.2,0-0.2-0.1c0-0.1,0-0.2,0.1-0.2l0.4-0.1l-0.6-0.3l-0.4,0.1c-0.1,0-0.1,0-0.1-0.1c0-0.1,0-0.1,0.1-0.1l0.2-0.1l-0.4-0.2
		c-0.1,0-0.1-0.1-0.1-0.2c0-0.1,0.1-0.1,0.2-0.1L37,1.2L37,1c0-0.1,0-0.1,0.1-0.1c0.1,0,0.1,0,0.1,0.1l0.1,0.4l0.6,0.3l-0.1-0.4
		c0-0.1,0-0.2,0.1-0.2c0.1,0,0.2,0,0.2,0.1l0.2,0.6c0,0,0,0.1,0,0.1L39,2.3l0-1c0,0-0.2-0.3,0-0.3c0,0,0,0,0,0c0,0,0,0,0,0
		c0.1-0.1,0.2,0.1,0.2,0.2L40,1.8v-1c0,0-0.1,0-0.1,0l-0.5-0.5c-0.1-0.1-0.1-0.2,0-0.2c0,0,0.1,0,0.1,0h-3.7c-0.2,1-0.4,2.1-0.4,3.2
		c0,1.9,0.4,3.8,1.2,5.5H50V7.5C49.9,7.5,49.8,7.4,49.8,7.3z"></path>
	<path d="M35.9,50H40v-0.3l-0.3-0.3c0,0,0-0.1,0-0.2c0,0,0.1,0,0.2,0l0.1,0.1V49c0-0.1,0.1-0.2,0.2-0.2
		c0.1,0,0.2,0.1,0.2,0.2v0.4l0.1-0.1c0,0,0.1,0,0.2,0c0,0,0,0.1,0,0.2l-0.3,0.3V50h9.5v-0.3l-0.3-0.3c0,0,0-0.1,0-0.2
		c0,0,0.1,0,0.2,0l0.1,0.1V49c0-0.1,0.1-0.2,0.2-0.2v-1.1H36.7C36.3,48.5,36.1,49.2,35.9,50z"></path>
	<path d="M37.2,46.7H50v-7.5C44.4,39.3,39.6,42.3,37.2,46.7z"></path>
	<path d="M0,39.3C0,39.3,0,39.3,0,39.3l0,7.5h12.9C10.4,42.3,5.6,39.3,0,39.3z"></path>
	<path d="M0,47.8v1.1c0.1,0,0.2,0.1,0.2,0.2v0.4l0.1-0.1c0,0,0.1,0,0.2,0c0,0,0,0.1,0,0.2l-0.3,0.3V50h9.5v-0.3
		l-0.3-0.3c0,0,0-0.1,0-0.2c0,0,0.1,0,0.2,0l0.1,0.1V49c0-0.1,0.1-0.2,0.2-0.2c0.1,0,0.2,0.1,0.2,0.2v0.4l0.1-0.1c0,0,0.1,0,0.2,0
		s0,0.1,0,0.2L10,49.7V50h4.2c-0.2-0.8-0.4-1.5-0.7-2.2H0z"></path>
	<path d="M9.7,0.4V0H9.2c0,0,0.1,0,0.1,0L9.7,0.4z"></path>
	<path d="M10.4,0H10v0.4L10.4,0C10.3,0,10.4,0,10.4,0z"></path>
	<path d="M9.7,2.3c-0.1,0-0.2,0-0.3-0.1L8.8,1.3c0,0,0,0,0,0c0,0,0,0,0,0l0.5,1c0,0.1,0,0.2-0.1,0.3l0.3,0.2
		c0.1,0,0.1,0.1,0.1,0.2c0,0.1-0.1,0.1-0.2,0.1L9,2.9C9,3,8.9,3.1,8.8,3.1L7.7,3.2c0,0,0,0,0,0c0,0,0,0,0,0l1.1,0.1
		C8.9,3.3,9,3.4,9,3.5l0.3-0.2c0.1,0,0.2,0,0.2,0.1c0,0.1,0,0.2-0.1,0.2L9.2,3.7C9.2,3.8,9.3,3.9,9.2,4L8.7,5c0,0,0,0,0,0
		c0,0,0,0,0,0l0.6-0.9C9.5,4,9.6,4,9.7,4V3.7c0-0.1,0.1-0.2,0.2-0.2c0.1,0,0.2,0.1,0.2,0.2V4c0.1,0,0.2,0,0.3,0.1L10.9,5
		c0,0,0,0,0,0c0,0,0,0,0,0l-0.5-1c0-0.1,0-0.2,0.1-0.3l-0.3-0.2c-0.1,0-0.1-0.1-0.1-0.2c0-0.1,0.1-0.1,0.2-0.1l0.3,0.2
		c0-0.1,0.1-0.2,0.2-0.2l1.1-0.1c0,0,0,0,0,0c0,0,0,0,0,0l-1.1-0.1c-0.1,0-0.2-0.1-0.2-0.2L10.3,3c-0.1,0-0.2,0-0.2-0.1
		c0-0.1,0-0.2,0.1-0.2l0.3-0.2c-0.1-0.1-0.1-0.2-0.1-0.3l0.5-1c0,0,0,0,0,0c0,0,0,0,0,0l-0.6,0.9c-0.1,0.1-0.2,0.1-0.3,0.1v0.3
		c0,0.1-0.1,0.2-0.2,0.2c-0.1,0-0.2-0.1-0.2-0.2V2.3z M9.8,2.8c0.2,0,0.3,0.1,0.3,0.3c0,0.2-0.1,0.3-0.3,0.3c-0.2,0-0.3-0.1-0.3-0.3
		C9.5,3,9.6,2.8,9.8,2.8z"></path>
	<path d="M0.6,0H0.2v0.4L0.6,0C0.5,0,0.5,0,0.6,0z"></path>
	<path d="M0,17v0.1v15.8v0.2v0.3h0.5v-0.3c0.5,0.1,0.9,0.5,0.9,1c0,0.4-0.3,1-0.7,1.2H0.1h0h0h0H0v0.2v0.2v2.4
		c0,0,0.1-0.1,0.1-0.1v0c0,0,0,0,0,0c0,0,0,0,0,0v0c0.3,0,0.5,0.5,0.8,0.5c0.3,0,0.5-0.6,0.8-0.5c0.3,0,0.5,0.7,0.7,0.7
		c0.2,0,0.5,0.1,0.7,0.2L3,38.1l-0.2-0.9l-0.2-0.9l-0.2-0.9H1.3H1c0.4-0.3,0.6-0.8,0.6-1.2c0-0.6-0.5-1.1-1.1-1.2V17.1
		c5.3-0.2,10-3.1,12.3-7.4H0V17z"></path>
	<path d="M14.1,0h-3.7c0,0,0.1,0,0.1,0c0.1,0.1,0.1,0.2,0,0.2l-0.5,0.5c0,0-0.1,0-0.1,0v1l0.8-0.5c0,0,0.1-0.3,0.2-0.2
		c0,0,0,0,0,0c0,0,0,0,0,0c0.2,0,0,0.3,0,0.3l0,1l0.8-0.5c0,0,0-0.1,0-0.1l0.2-0.6C12,1,12.1,1,12.2,1c0.1,0,0.1,0.1,0.1,0.2
		l-0.1,0.4l0.6-0.3l0.1-0.4c0-0.1,0.1-0.1,0.1-0.1C13,0.9,13.1,0.9,13,1l0,0.2L13.3,1c0.1,0,0.2,0,0.2,0.1c0,0.1,0,0.2-0.1,0.2
		l-0.4,0.2l0.2,0.1c0.1,0,0.1,0.1,0.1,0.1c0,0.1-0.1,0.1-0.1,0.1l-0.4-0.1l-0.6,0.3L12.8,2c0.1,0,0.1,0.1,0.1,0.2
		c0,0.1-0.1,0.1-0.2,0.1L12,2.2c0,0-0.1,0-0.1-0.1l-0.8,0.5L12,3c0,0,0.3,0,0.3,0.1c0,0.2-0.2,0.1-0.3,0.1l-0.9,0.4L12,4.2
		c0,0,0-0.1,0.1-0.1L12.7,4c0.1,0,0.2,0,0.2,0.1c0,0.1,0,0.2-0.1,0.2l-0.4,0.1l0.6,0.3l0.4-0.1c0.1,0,0.1,0,0.1,0.1
		c0,0.1,0,0.1-0.1,0.1l-0.2,0.1l0.4,0.2c0.1,0,0.1,0.1,0.1,0.2c0,0.1-0.1,0.1-0.2,0.1L13,5.2l0,0.2c0,0.1,0,0.1-0.1,0.1
		c-0.1,0-0.1,0-0.1-0.1L12.7,5l-0.6-0.3l0.1,0.4c0,0.1,0,0.2-0.1,0.2c-0.1,0-0.2,0-0.2-0.1l-0.2-0.6c0,0,0-0.1,0-0.1L11,4l0,1
		c0,0,0.2,0.3,0,0.3c0,0,0,0,0,0c0,0,0,0,0,0c-0.1,0.1-0.2-0.1-0.2-0.2L10,4.6v1c0,0,0.1,0,0.1,0l0.5,0.5c0.1,0.1,0.1,0.2,0,0.2
		c-0.1,0.1-0.2,0.1-0.2,0L10,6v0.6l0.3,0.3c0,0,0,0.1,0,0.2c0,0-0.1,0-0.2,0L10,6.9v0.4c0,0.1-0.1,0.2-0.2,0.2
		c-0.1,0-0.2-0.1-0.2-0.2V6.9L9.5,7.1c0,0-0.1,0-0.2,0c0,0,0-0.1,0-0.2l0.3-0.3V6L9.3,6.3c-0.1,0.1-0.2,0.1-0.2,0
		C9,6.2,9,6.1,9.1,6.1l0.5-0.5c0,0,0.1,0,0.1,0v-1L8.8,5.1c0,0-0.1,0.3-0.2,0.2c0,0,0,0,0,0c0,0,0,0,0,0c-0.2,0,0-0.3,0-0.3l0-1
		L7.8,4.5c0,0,0,0.1,0,0.1L7.7,5.2c0,0.1-0.1,0.1-0.2,0.1c-0.1,0-0.1-0.1-0.1-0.2l0.1-0.4L6.9,5L6.8,5.4c0,0.1-0.1,0.1-0.1,0.1
		c-0.1,0-0.1-0.1-0.1-0.1l0.1-0.2L6.3,5.4c-0.1,0-0.2,0-0.2-0.1c0-0.1,0-0.2,0.1-0.2l0.4-0.2L6.3,4.9c-0.1,0-0.1-0.1-0.1-0.1
		c0-0.1,0.1-0.1,0.1-0.1l0.4,0.1l0.6-0.3L6.9,4.3c-0.1,0-0.1-0.1-0.1-0.2C6.8,4,6.9,4,6.9,4l0.6,0.2c0,0,0.1,0,0.1,0.1l0.8-0.5
		L7.6,3.3c0,0-0.3,0-0.3-0.1C7.3,3,7.6,3.1,7.6,3l0.9-0.4L7.7,2.1c0,0,0,0.1-0.1,0.1L6.9,2.4c-0.1,0-0.2,0-0.2-0.1
		c0-0.1,0-0.2,0.1-0.2l0.4-0.1L6.7,1.6L6.3,1.7c-0.1,0-0.1,0-0.1-0.1c0-0.1,0-0.1,0.1-0.1l0.2-0.1L6.1,1.2C6,1.2,6,1.1,6.1,1
		c0-0.1,0.1-0.1,0.2-0.1l0.4,0.2L6.6,1c0-0.1,0-0.1,0.1-0.1c0.1,0,0.1,0,0.1,0.1l0.1,0.4l0.6,0.3L7.3,1.2c0-0.1,0-0.2,0.1-0.2
		c0.1,0,0.2,0,0.2,0.1l0.2,0.6c0,0,0,0.1,0,0.1l0.8,0.5l0-1c0,0-0.2-0.3,0-0.3c0,0,0,0,0,0c0,0,0,0,0,0C8.7,1,8.8,1.2,8.8,1.2
		l0.8,0.5v-1c0,0-0.1,0-0.1,0L9.1,0.3C9,0.2,9,0.1,9.1,0c0,0,0.1,0,0.1,0H0.6c0,0,0.1,0,0.1,0c0.1,0.1,0.1,0.2,0,0.2L0.2,0.8
		c0,0-0.1,0-0.1,0v1L1,1.2c0,0,0.1-0.3,0.2-0.2c0,0,0,0,0,0c0,0,0,0,0,0c0.2,0,0,0.3,0,0.3l0,1L2,1.9c0,0,0-0.1,0-0.1l0.2-0.6
		C2.2,1,2.3,1,2.4,1c0.1,0,0.1,0.1,0.1,0.2L2.4,1.6l0.6-0.3L3,0.9c0-0.1,0.1-0.1,0.1-0.1c0.1,0,0.1,0.1,0.1,0.1l0,0.2L3.5,1
		c0.1,0,0.2,0,0.2,0.1c0,0.1,0,0.2-0.1,0.2L3.3,1.4l0.2,0.1c0.1,0,0.1,0.1,0.1,0.1c0,0.1-0.1,0.1-0.1,0.1L3.1,1.6L2.5,1.9L3,2
		c0.1,0,0.1,0.1,0.1,0.2c0,0.1-0.1,0.1-0.2,0.1L2.2,2.2c0,0-0.1,0-0.1-0.1L1.3,2.6L2.2,3c0,0,0.3,0,0.3,0.1c0,0.2-0.2,0.1-0.3,0.1
		L1.3,3.8l0.8,0.5c0,0,0-0.1,0.1-0.1L2.9,4C3,4,3.1,4,3.1,4.1c0,0.1,0,0.2-0.1,0.2L2.5,4.5l0.6,0.3l0.4-0.1c0.1,0,0.1,0,0.1,0.1
		c0,0.1,0,0.1-0.1,0.1L3.3,4.9l0.4,0.2c0.1,0,0.1,0.1,0.1,0.2c0,0.1-0.1,0.1-0.2,0.1L3.2,5.2l0,0.2c0,0.1,0,0.1-0.1,0.1
		C3.1,5.5,3,5.5,3,5.4L2.9,5L2.4,4.7l0.1,0.4c0,0.1,0,0.2-0.1,0.2c-0.1,0-0.2,0-0.2-0.1L2,4.6c0,0,0-0.1,0-0.1L1.2,4l0,1
		c0,0,0.2,0.3,0,0.3c0,0,0,0,0,0c0,0,0,0,0,0C1.1,5.4,1,5.1,1,5.1L0.2,4.6v1c0,0,0.1,0,0.1,0l0.5,0.5c0.1,0.1,0.1,0.2,0,0.2
		c-0.1,0.1-0.2,0.1-0.2,0L0.2,6v0.6l0.3,0.3c0,0,0,0.1,0,0.2c0,0-0.1,0-0.2,0L0.2,6.9v0.4c0,0.1-0.1,0.2-0.2,0.2v1.1h13.4
		c0.7-1.7,1.2-3.5,1.2-5.5C14.5,2.1,14.4,1,14.1,0z"></path>
	<path d="M0.2,3.7V4c0.1,0,0.2,0,0.3,0.1L1,5c0,0,0,0,0,0c0,0,0,0,0,0L0.6,4c0-0.1,0-0.2,0.1-0.3L0.4,3.6
		c-0.1,0-0.1-0.1-0.1-0.2c0-0.1,0.1-0.1,0.2-0.1l0.3,0.2c0-0.1,0.1-0.2,0.2-0.2l1.1-0.1c0,0,0,0,0,0c0,0,0,0,0,0L1,3.1
		C0.9,3.1,0.8,3,0.8,2.9L0.5,3c-0.1,0-0.2,0-0.2-0.1c0-0.1,0-0.2,0.1-0.2l0.3-0.2C0.6,2.5,0.6,2.5,0.6,2.4l0.5-1c0,0,0,0,0,0
		c0,0,0,0,0,0L0.4,2.3C0.3,2.3,0.2,2.3,0.2,2.3v0.3c0,0.1-0.1,0.2-0.2,0.2v0c0.2,0,0.3,0.1,0.3,0.3c0,0.2-0.1,0.3-0.3,0.3v0
		C0.1,3.6,0.2,3.6,0.2,3.7z"></path>
	<path d="M37.2,9.7c2.4,4.4,7.2,7.4,12.8,7.4V9.7H37.2z"></path>
	<path d="M49.5,33c-0.5,0.2-0.8,0.6-0.8,1.1c0,0.4,0.2,0.9,0.6,1.2H49h-1.1l-0.2,0.9l-0.2,0.9l-0.2,0.9l-0.2,0.9
		c0.2-0.1,0.5-0.1,0.7-0.2c0.2,0,0.5-0.7,0.7-0.7c0.3,0,0.5,0.5,0.8,0.5c0.2,0,0.4-0.4,0.6-0.5v-2.4v-0.2v-0.2h-0.4
		c-0.4-0.3-0.7-0.8-0.7-1.2c0-0.4,0.3-0.7,0.7-0.9v0.1H50v-0.3v-0.2V17.1h-0.5V33z"></path>
</g></g></pattern></defs><rect width="100%" height="100%" id="RctSolidBackground1" fill="url(#pattern-339-layer-1)"></rect></svg>