<svg xmlns="http://www.w3.org/2000/svg" version="1.1" xmlns:xlink="http://www.w3.org/1999/xlink" xmlns:svgjs="http://svgjs.com/svgjs" id="svg-pattern-343" width="100%" height="100%"><defs><pattern x="0" y="0" width="50" height="50" patternUnits="userSpaceOnUse" id="pattern-343-layer-1"><g id="PatternRootContent1" transform="scale(1)"><rect class="fill0" width="50" height="50" fill="#161616"></rect>
<g class="fill1" fill="#2e2e2eff">
	<circle cx="36.1" cy="17.9" r="0.8"></circle>
	<circle cx="18.5" cy="14.7" r="0.8"></circle>
	<circle cx="42.6" cy="14" r="0.8"></circle>
	<circle cx="41.8" cy="48.7" r="0.8"></circle>
	<circle cx="47.9" cy="19.7" r="0.8"></circle>
	<circle cx="7.5" cy="41.5" r="0.8"></circle>
	<circle cx="11.2" cy="11.1" r="0.8"></circle>
	<circle cx="27.8" cy="3.6" r="0.8"></circle>
	<circle cx="16" cy="1.1" r="0.8"></circle>
	<circle cx="26" cy="45.9" r="0.8"></circle>
	<circle cx="28.6" cy="38.3" r="0.8"></circle>
	<circle cx="1.7" cy="38.3" r="0.8"></circle>
	<circle cx="19.3" cy="42.8" r="0.8"></circle>
	<circle cx="37.7" cy="36.1" r="0.8"></circle>
	<circle cx="3.6" cy="27" r="0.8"></circle>
	<path d="M47.8,23.4c-0.1-0.2-0.4,0.1-0.4,0.1l-1.6,0.8c0,0,0,0,0,0c0.1-0.4,0.2-0.8,0.2-1.1c0-0.1-0.1-0.4-0.2-0.4
		c-0.1,0-0.1,0.2-0.1,0.4c0,0.4-0.1,0.9-0.1,1.2c0,0,0,0.1,0,0.1l-1.4,0.7c0.2-0.5,0.4-1.3,0.3-1.8c0,0,0,0,0.1,0
		c0.2-0.1,0.4-0.3,0.3-0.4c-0.1-0.1-0.3-0.1-0.4,0c-0.1-0.2-0.1-0.3-0.2-0.3c-0.1-0.1-0.2,0.2-0.2,0.4c0,0,0,0,0,0.1
		c-0.5,0.3-1.1,0.7-1.4,1.2l-0.1-1.6c0,0,0,0,0.1,0c0.3-0.2,0.7-0.5,1-0.7c0.2-0.1,0.3-0.2,0.3-0.3c-0.1-0.1-0.3,0-0.5,0
		c-0.3,0.1-0.6,0.4-0.9,0.7c0,0,0,0,0,0l-0.1-1.8c0-0.1,0.1-0.4-0.1-0.4c-0.2,0-0.1,0.4-0.1,0.4l-0.1,1.8c0,0,0,0,0,0
		c-0.3-0.3-0.6-0.6-0.9-0.7c-0.1-0.1-0.4-0.1-0.5,0c-0.1,0.1,0.1,0.2,0.3,0.3c0.4,0.2,0.7,0.5,1,0.7c0,0,0,0,0.1,0l-0.1,1.6
		c-0.4-0.5-0.9-0.9-1.4-1.2c0,0,0,0,0-0.1c0-0.2,0-0.5-0.2-0.4c-0.1,0-0.2,0.2-0.2,0.3c-0.2,0-0.3,0-0.4,0c-0.1,0.1,0.1,0.3,0.3,0.4
		c0,0,0,0,0.1,0c0,0.6,0.1,1.3,0.3,1.8l-1.4-0.7c0,0,0,0,0-0.1c0-0.4-0.1-0.8-0.1-1.2c0-0.2,0-0.4-0.1-0.4c-0.1,0-0.2,0.3-0.2,0.4
		c0,0.3,0.1,0.8,0.2,1.1c0,0,0,0,0,0L37,23.5c-0.1,0-0.3-0.3-0.4-0.1c-0.1,0.2,0.2,0.3,0.3,0.3l1.5,1c0,0,0,0,0,0
		c-0.4,0.1-0.8,0.2-1.1,0.4c-0.1,0.1-0.3,0.3-0.3,0.4c0,0.1,0.2,0,0.4-0.1c0.3-0.2,0.8-0.4,1.1-0.5c0,0,0,0,0.1,0l1.3,0.9
		c-0.6,0.1-1.3,0.3-1.7,0.7c0,0,0,0,0,0c-0.2-0.1-0.4-0.2-0.5-0.1c0,0.1,0.1,0.2,0.2,0.4c-0.1,0.1-0.2,0.3-0.2,0.4
		c0,0.1,0.3,0.1,0.5-0.1c0,0,0,0,0,0c0.5,0.3,1.2,0.6,1.7,0.7l-1.3,0.9c0,0,0,0-0.1,0c-0.3-0.2-0.8-0.3-1.1-0.5
		c-0.1-0.1-0.4-0.2-0.4-0.1c0,0.1,0.1,0.3,0.3,0.4c0.3,0.2,0.7,0.3,1.1,0.4c0,0,0,0,0,0l-1.5,1c-0.1,0-0.4,0.1-0.3,0.3
		c0.1,0.2,0.4-0.1,0.4-0.1l1.6-0.8c0,0,0,0,0,0c-0.1,0.4-0.2,0.8-0.2,1.1c0,0.1,0.1,0.4,0.2,0.4c0.1,0,0.1-0.2,0.1-0.4
		c0-0.4,0.1-0.9,0.1-1.2c0,0,0-0.1,0-0.1l1.4-0.7c-0.2,0.5-0.4,1.3-0.3,1.8c0,0,0,0-0.1,0c-0.2,0.1-0.4,0.3-0.3,0.4
		c0.1,0.1,0.3,0.1,0.4,0c0.1,0.2,0.1,0.3,0.2,0.3c0.1,0.1,0.2-0.2,0.2-0.4c0,0,0,0,0-0.1c0.5-0.3,1.1-0.7,1.4-1.2l0.1,1.6
		c0,0,0,0-0.1,0c-0.3,0.2-0.7,0.5-1,0.7c-0.2,0.1-0.3,0.2-0.3,0.3c0.1,0.1,0.3,0,0.5,0c0.3-0.1,0.6-0.4,0.9-0.7c0,0,0,0,0,0l0.1,1.8
		c0,0.1-0.1,0.4,0.1,0.4c0.2,0,0.1-0.4,0.1-0.4l0.1-1.8c0,0,0,0,0,0c0.3,0.3,0.6,0.6,0.9,0.7c0.1,0.1,0.4,0.1,0.5,0
		c0.1-0.1-0.1-0.2-0.3-0.3c-0.4-0.2-0.7-0.5-1-0.7c0,0,0,0-0.1,0l0.1-1.6c0.4,0.5,0.9,0.9,1.4,1.2c0,0,0,0,0,0.1
		c0,0.2,0,0.5,0.2,0.4c0.1,0,0.2-0.2,0.2-0.3c0.2,0,0.3,0,0.4,0c0.1-0.1-0.1-0.3-0.3-0.4c0,0,0,0-0.1,0c0-0.6-0.1-1.3-0.3-1.8
		l1.4,0.7c0,0,0,0,0,0.1c0,0.4,0.1,0.8,0.1,1.2c0,0.2,0,0.4,0.1,0.4c0.1,0,0.2-0.3,0.2-0.4c0-0.3-0.1-0.8-0.2-1.1c0,0,0,0,0,0
		l1.6,0.8c0.1,0,0.3,0.3,0.4,0.1c0.1-0.2-0.2-0.3-0.3-0.3l-1.5-1c0,0,0,0,0,0c0.4-0.1,0.8-0.2,1.1-0.4c0.1-0.1,0.3-0.3,0.3-0.4
		c0-0.1-0.2,0-0.4,0.1c-0.3,0.2-0.8,0.4-1.1,0.5c0,0,0,0-0.1,0l-1.3-0.9c0.6-0.1,1.3-0.3,1.7-0.7c0,0,0,0,0,0
		c0.2,0.1,0.4,0.2,0.5,0.1c0-0.1-0.1-0.2-0.2-0.4c0.1-0.1,0.2-0.3,0.2-0.4c0-0.1-0.3-0.1-0.5,0.1c0,0,0,0,0,0
		c-0.5-0.3-1.2-0.6-1.7-0.7l1.3-0.9c0,0,0,0,0.1,0c0.3,0.2,0.8,0.3,1.1,0.5c0.1,0.1,0.4,0.2,0.4,0.1c0-0.1-0.1-0.3-0.3-0.4
		c-0.3-0.2-0.7-0.3-1.1-0.4c0,0,0,0,0,0l1.5-1C47.5,23.7,47.9,23.6,47.8,23.4z M45.7,26.6c-0.6,0.3-1.2,0.5-1.7,0.6l-0.9-0.6
		c-0.2-0.1-0.5,0-0.6,0.2c-0.1,0.2,0,0.5,0.2,0.6l1,0.5c0.1,0.5,0.3,1.2,0.3,1.8c-0.5-0.4-1-0.8-1.4-1.2l0.1-1.1
		c0-0.2-0.2-0.4-0.4-0.4c-0.2,0-0.4,0.2-0.4,0.4l0.1,1.1c-0.4,0.3-0.9,0.8-1.4,1.2c0-0.6,0.2-1.3,0.3-1.8l1-0.5
		c0.2-0.1,0.3-0.4,0.2-0.6c-0.1-0.2-0.4-0.3-0.6-0.2l-0.9,0.6c-0.5-0.2-1.1-0.4-1.7-0.6c0.6-0.3,1.2-0.5,1.7-0.6l0.9,0.6
		c0.2,0.1,0.5,0,0.6-0.2c0.1-0.2,0-0.5-0.2-0.6l-1-0.5c-0.1-0.5-0.3-1.2-0.3-1.8c0.5,0.4,1,0.8,1.4,1.2l-0.1,1.1
		c0,0.2,0.2,0.4,0.4,0.4c0.2,0,0.4-0.2,0.4-0.4l-0.1-1.1c0.4-0.3,0.9-0.8,1.4-1.2c0,0.6-0.2,1.3-0.3,1.8l-1,0.5
		c-0.2,0.1-0.3,0.4-0.2,0.6c0.1,0.2,0.4,0.3,0.6,0.2L44,26C44.5,26.1,45.1,26.3,45.7,26.6z"></path>
	<circle cx="42.2" cy="26.6" r="0.2"></circle>
	<path d="M32.3,23.1c-0.2-0.3-0.5,0.1-0.6,0.1l-2.3,1.1c0,0,0,0,0,0c0.2-0.5,0.3-1.2,0.3-1.6c0-0.2-0.2-0.5-0.3-0.6
		c-0.1,0-0.2,0.3-0.2,0.6c0,0.6-0.1,1.2-0.1,1.8c0,0,0,0.1,0,0.1l-2.1,1c0.3-0.8,0.5-1.8,0.5-2.7c0,0,0.1,0,0.1,0
		c0.3-0.1,0.6-0.4,0.4-0.5c-0.1-0.1-0.4-0.1-0.6,0c-0.1-0.2-0.2-0.4-0.3-0.5c-0.2-0.1-0.3,0.3-0.2,0.6c0,0,0,0.1,0,0.1
		c-0.8,0.4-1.6,1.1-2.1,1.7L24.5,22c0,0,0.1,0,0.1-0.1c0.5-0.3,1-0.7,1.5-1c0.2-0.1,0.5-0.3,0.4-0.4c-0.1-0.1-0.5-0.1-0.7,0
		c-0.4,0.2-0.9,0.6-1.3,1c0,0,0,0,0,0L24.3,19c0-0.1,0.2-0.6-0.2-0.6c-0.3,0-0.2,0.5-0.2,0.6l-0.1,2.5c0,0,0,0,0,0
		c-0.4-0.4-0.9-0.8-1.3-1c-0.2-0.1-0.6-0.1-0.7,0c-0.1,0.1,0.2,0.3,0.4,0.4c0.5,0.3,1,0.7,1.5,1c0,0,0.1,0,0.1,0.1l-0.1,2.3
		c-0.5-0.7-1.3-1.3-2.1-1.7c0,0,0-0.1,0-0.1c0-0.3-0.1-0.7-0.2-0.6c-0.1,0.1-0.3,0.3-0.3,0.5c-0.2,0-0.5,0-0.6,0
		c-0.2,0.1,0.1,0.4,0.4,0.5c0,0,0.1,0,0.1,0c-0.1,0.8,0.2,1.9,0.5,2.7l-2.1-1c0,0,0-0.1,0-0.1c0-0.5-0.2-1.2-0.1-1.8
		c0-0.3,0-0.6-0.2-0.6c-0.1,0.1-0.3,0.4-0.3,0.6c0,0.5,0.1,1.1,0.3,1.6c0,0,0,0,0,0l-2.3-1.1c-0.1-0.1-0.5-0.4-0.6-0.1
		c-0.2,0.3,0.4,0.4,0.4,0.5l2.1,1.4c0,0,0,0,0,0c-0.5,0.1-1.2,0.3-1.6,0.6c-0.2,0.1-0.4,0.4-0.4,0.6c0,0.1,0.4,0,0.6-0.1
		c0.5-0.3,1.1-0.5,1.6-0.8c0,0,0.1,0,0.1-0.1l1.9,1.3c-0.8,0.1-1.8,0.5-2.5,0.9c0,0,0,0-0.1,0c-0.3-0.2-0.6-0.3-0.7-0.1
		c0,0.1,0.1,0.4,0.3,0.5c-0.1,0.2-0.3,0.4-0.3,0.5c0,0.2,0.4,0.1,0.7-0.1c0,0,0,0,0.1,0c0.7,0.5,1.7,0.8,2.5,0.9l-1.9,1.3
		c0,0-0.1,0-0.1-0.1c-0.5-0.3-1.1-0.5-1.6-0.8c-0.2-0.1-0.5-0.3-0.6-0.1c0,0.2,0.2,0.5,0.4,0.6c0.4,0.3,1,0.5,1.6,0.6c0,0,0,0,0,0
		L16.5,32c-0.1,0.1-0.6,0.2-0.4,0.5c0.2,0.3,0.5-0.1,0.6-0.2l2.3-1.1c0,0,0,0,0,0c-0.2,0.5-0.3,1.2-0.3,1.6c0,0.2,0.2,0.5,0.3,0.6
		c0.1,0,0.2-0.3,0.2-0.6c0-0.6,0.1-1.2,0.1-1.8c0,0,0-0.1,0-0.1l2.1-1c-0.3,0.8-0.5,1.8-0.5,2.7c0,0-0.1,0-0.1,0
		c-0.3,0.1-0.6,0.4-0.4,0.5c0.1,0.1,0.4,0.1,0.6,0c0.1,0.2,0.2,0.4,0.3,0.5c0.2,0.1,0.3-0.3,0.2-0.6c0,0,0-0.1,0-0.1
		c0.8-0.4,1.5-1.1,2.1-1.7l0.1,2.3c0,0-0.1,0-0.1,0.1c-0.5,0.3-1,0.7-1.5,1c-0.2,0.1-0.5,0.3-0.4,0.4c0.1,0.1,0.5,0.1,0.7,0
		c0.4-0.2,0.9-0.6,1.3-1c0,0,0,0,0,0l0.1,2.5c0,0.1-0.2,0.6,0.2,0.6c0.3,0,0.2-0.5,0.2-0.6l0.1-2.5c0,0,0,0,0,0
		c0.4,0.4,0.9,0.8,1.3,1c0.2,0.1,0.6,0.1,0.7,0c0.1-0.1-0.2-0.3-0.4-0.4c-0.5-0.3-1-0.7-1.5-1c0,0-0.1,0-0.1-0.1l0.1-2.3
		c0.5,0.7,1.3,1.4,2.1,1.7c0,0,0,0.1,0,0.1c0,0.3,0.1,0.7,0.2,0.6c0.1-0.1,0.3-0.3,0.3-0.5c0.2,0,0.5,0,0.6,0
		c0.2-0.1-0.1-0.4-0.4-0.5c0,0-0.1,0-0.1,0c0.1-0.8-0.1-1.9-0.5-2.7l2,1c0,0,0,0.1,0,0.1c0,0.5,0.2,1.2,0.1,1.8c0,0.3,0,0.6,0.2,0.6
		c0.1-0.1,0.3-0.4,0.3-0.6c0-0.5-0.1-1.1-0.3-1.6c0,0,0,0,0,0l2.3,1.1c0.1,0.1,0.5,0.4,0.6,0.2c0.2-0.3-0.4-0.4-0.4-0.5l-2.1-1.4
		c0,0,0,0,0,0c0.5-0.1,1.2-0.3,1.6-0.6c0.2-0.1,0.4-0.4,0.4-0.6c0-0.1-0.4,0-0.6,0.1c-0.5,0.3-1.1,0.5-1.6,0.8c0,0-0.1,0-0.1,0.1
		l-1.9-1.3c0.8-0.1,1.8-0.5,2.5-0.9c0,0,0,0,0.1,0c0.3,0.2,0.6,0.3,0.7,0.1c0-0.1-0.1-0.4-0.3-0.5c0.2-0.2,0.3-0.4,0.3-0.5
		c0-0.2-0.4-0.1-0.7,0.1c0,0,0,0-0.1,0c-0.7-0.5-1.7-0.8-2.5-0.9l1.9-1.3c0,0,0.1,0,0.1,0.1c0.5,0.3,1.1,0.5,1.6,0.8
		c0.2,0.1,0.5,0.3,0.6,0.1c0-0.1-0.2-0.5-0.4-0.6c-0.4-0.3-1-0.5-1.6-0.6c0,0,0,0,0,0l2.1-1.4C31.9,23.5,32.4,23.4,32.3,23.1z
		 M29.3,27.8c-0.8,0.4-1.8,0.7-2.5,0.9l-1.3-0.9c-0.3-0.2-0.7-0.1-0.8,0.2c-0.2,0.3-0.1,0.7,0.2,0.8l1.4,0.7
		c0.1,0.7,0.4,1.7,0.4,2.6c-0.8-0.5-1.5-1.2-2.1-1.7l0.1-1.5c0-0.3-0.3-0.6-0.6-0.6c-0.3,0-0.6,0.3-0.6,0.6l0.1,1.5
		c-0.5,0.5-1.3,1.2-2.1,1.7c0.1-0.9,0.3-1.9,0.4-2.6l1.4-0.7c0.3-0.2,0.4-0.5,0.2-0.8c-0.2-0.3-0.5-0.4-0.8-0.2l-1.3,0.9
		c-0.7-0.2-1.6-0.5-2.5-0.9c0.8-0.4,1.8-0.7,2.5-0.9l1.3,0.9c0.3,0.2,0.7,0.1,0.8-0.2c0.2-0.3,0.1-0.7-0.2-0.8L22,25.9
		c-0.1-0.7-0.4-1.7-0.4-2.6c0.8,0.5,1.5,1.2,2.1,1.7l-0.1,1.5c0,0.3,0.3,0.6,0.6,0.6c0.3,0,0.6-0.3,0.6-0.6L24.7,25
		c0.5-0.5,1.3-1.2,2-1.7c0,0.9-0.3,1.9-0.4,2.6l-1.4,0.7c-0.3,0.2-0.4,0.5-0.2,0.8c0.2,0.3,0.6,0.4,0.8,0.2l1.3-0.9
		C27.5,27.1,28.5,27.4,29.3,27.8z"></path>
	<circle cx="24.2" cy="27.8" r="0.3"></circle>
	<path d="M47.8,1.1c-0.5,0.1-1,0.3-1.4,0.5c-0.1,0.1-0.3,0.4-0.3,0.5c0,0.1,0.3,0,0.5-0.1c0.4-0.3,1-0.5,1.4-0.7
		c0,0,0.1,0,0.1-0.1l1.7,1.1c-0.7,0.1-1.6,0.4-2.3,0.8c0,0,0,0-0.1,0c-0.2-0.2-0.6-0.3-0.6-0.1c0,0.1,0.1,0.3,0.2,0.5
		C47,3.7,46.9,3.9,46.9,4c0,0.2,0.3,0.1,0.6-0.1c0,0,0,0,0.1,0c0.6,0.4,1.5,0.7,2.3,0.8l-1.7,1.1c0,0,0,0-0.1-0.1
		c-0.4-0.2-1-0.4-1.4-0.7C46.4,5,46.1,4.9,46.1,5c0,0.1,0.2,0.4,0.3,0.5C46.8,5.8,47.3,6,47.8,6c0,0,0,0,0,0l-1.9,1.2
		c-0.1,0-0.5,0.2-0.4,0.4C45.7,8,46,7.6,46.1,7.6l2-1c0,0,0,0,0,0C48,7,47.8,7.6,47.9,8c0,0.2,0.2,0.5,0.3,0.5
		c0.1,0,0.2-0.3,0.2-0.5c0-0.5,0.1-1.1,0.1-1.6c0,0,0-0.1,0-0.1L50,5.6V4.3c-0.6-0.2-1.2-0.4-1.8-0.7C48.8,3.2,49.4,3,50,2.8V1.5
		l-1.6-0.8c0,0,0-0.1,0-0.1c0-0.2,0-0.4-0.1-0.6H48c0,0.2,0.1,0.4,0.1,0.5c0,0,0,0,0,0L47,0h-0.8L47.8,1.1
		C47.8,1.1,47.8,1.1,47.8,1.1z"></path>
	<path d="M49.9,7.9C49.8,7.9,49.8,7.9,49.9,7.9c-0.3,0.2-0.6,0.4-0.4,0.5c0.1,0.1,0.3,0.1,0.5,0c0,0,0,0.1,0.1,0.1V6.4
		C49.9,6.9,49.8,7.4,49.9,7.9z"></path>
	<path d="M50,0h-0.1c0,0.2,0.1,0.5,0.1,0.7V0z"></path>
	<path d="M0.5,8.3C0.5,8.3,0.5,8.2,0.5,8.3c0.7-0.4,1.4-1,1.8-1.6l0.1,2c0,0-0.1,0-0.1,0C1.9,9,1.5,9.4,1,9.6
		C0.8,9.7,0.6,9.9,0.7,10c0.1,0.1,0.4,0.1,0.6,0c0.4-0.2,0.8-0.6,1.2-0.9c0,0,0,0,0,0l0.1,2.3c0,0.1-0.1,0.6,0.2,0.6
		c0.3,0,0.2-0.5,0.2-0.6L3,9.1c0,0,0,0,0,0C3.4,9.4,3.8,9.8,4.2,10c0.2,0.1,0.5,0.1,0.6,0c0.1-0.1-0.1-0.3-0.3-0.4
		C4,9.4,3.6,9,3.1,8.7c0,0-0.1,0-0.1,0l0.1-2C3.7,7.3,4.3,7.9,5,8.2c0,0,0,0.1,0,0.1c0,0.3,0.1,0.6,0.2,0.6c0.1-0.1,0.2-0.2,0.3-0.4
		c0.2,0,0.4,0,0.5,0C6.2,8.2,6,8,5.7,7.9c0,0,0,0-0.1,0c0.1-0.8-0.1-1.7-0.4-2.4L7,6.4c0,0,0,0.1,0,0.1c0,0.5,0.1,1.1,0.1,1.6
		c0,0.2,0,0.5,0.2,0.5C7.4,8.5,7.6,8.2,7.6,8c0-0.4-0.1-1-0.2-1.5c0,0,0,0,0,0l2,1c0.1,0,0.4,0.4,0.6,0.1c0.2-0.3-0.3-0.4-0.4-0.4
		L7.7,6c0,0,0,0,0,0c0.5-0.1,1-0.3,1.4-0.5C9.2,5.4,9.4,5.1,9.4,5c0-0.1-0.3,0-0.5,0.1c-0.4,0.3-1,0.5-1.4,0.7c0,0-0.1,0-0.1,0.1
		L5.7,4.7c0.7-0.1,1.6-0.4,2.3-0.8c0,0,0,0,0.1,0C8.2,4.1,8.5,4.2,8.6,4c0-0.1-0.1-0.3-0.2-0.5c0.1-0.2,0.2-0.4,0.2-0.5
		C8.5,2.9,8.2,3,8,3.2c0,0,0,0-0.1,0C7.3,2.8,6.4,2.5,5.7,2.4l1.7-1.1c0,0,0.1,0,0.1,0.1c0.4,0.2,1,0.4,1.4,0.7
		c0.2,0.1,0.5,0.2,0.5,0.1c0-0.1-0.2-0.4-0.3-0.5C8.7,1.3,8.2,1.1,7.7,1.1c0,0,0,0,0,0L9.3,0H8.4L7.4,0.5c0,0,0,0,0,0
		C7.4,0.4,7.5,0.2,7.5,0H7.1c0,0.2-0.1,0.4-0.1,0.6c0,0,0,0.1,0,0.1L5.2,1.6C5.4,1.1,5.6,0.6,5.6,0H5C4.9,0.7,4.8,1.4,4.7,1.9
		L3.4,2.5C3.2,2.7,3.1,3,3.2,3.3C3.4,3.5,3.7,3.6,4,3.5l1.2-0.8c0.6,0.2,1.5,0.5,2.2,0.8C6.6,3.9,5.7,4.2,5.1,4.4L4,3.6
		C3.7,3.5,3.4,3.6,3.2,3.8C3.1,4.1,3.2,4.4,3.4,4.6l1.2,0.6C4.8,5.8,5,6.7,5,7.5C4.3,7.1,3.7,6.5,3.2,6l0.1-1.4
		c0-0.3-0.2-0.5-0.5-0.5c-0.3,0-0.6,0.2-0.6,0.5L2.3,6c-0.5,0.4-1.1,1-1.8,1.5c0-0.8,0.2-1.7,0.4-2.3l1.2-0.6
		c0.3-0.2,0.4-0.5,0.2-0.8C2.1,3.6,1.8,3.5,1.5,3.6L0.4,4.4C0.2,4.3,0.1,4.3,0,4.3v1.3l0.3-0.1C0.2,5.8,0.1,6.1,0,6.4v2.1
		c0.1,0.2,0.2,0.3,0.2,0.3C0.4,8.9,0.5,8.6,0.5,8.3z"></path>
	<path d="M0.4,2.7l1.2,0.8c0.3,0.2,0.6,0.1,0.8-0.2C2.4,3,2.3,2.7,2.1,2.5L0.8,1.9C0.7,1.4,0.6,0.7,0.5,0H0v0.7
		C0.1,1,0.2,1.3,0.3,1.6L0,1.5v1.3C0.1,2.8,0.2,2.8,0.4,2.7z"></path>
	<path d="M2.3,1.1L2.2,2.4C2.2,2.7,2.4,3,2.7,3C3,3,3.3,2.7,3.3,2.4L3.2,1.1C3.6,0.8,4,0.4,4.5,0H3.6
		C3.4,0.1,3.3,0.3,3.2,0.4l0-0.4H2.3l0,0.4C2.2,0.3,2.1,0.1,1.9,0H1C1.5,0.4,1.9,0.8,2.3,1.1z"></path>
	<circle cx="2.7" cy="3.5" r="0.2"></circle>
	<path d="M46.1,49.5c-0.1,0-0.4-0.4-0.6-0.1c-0.2,0.3,0.3,0.4,0.4,0.4l0.3,0.2H47L46.1,49.5z"></path>
	<path d="M49.4,48.7c-0.1,0.1,0.1,0.3,0.4,0.5c0,0,0,0,0.1,0c0,0.2,0,0.5,0,0.8H50v-1.4c0,0,0,0.1-0.1,0.1
		C49.7,48.7,49.5,48.7,49.4,48.7z"></path>
	<path d="M48.2,48.5c-0.1,0.1-0.3,0.4-0.3,0.5c0,0.3,0,0.6,0.1,0.9h0.4c0-0.3-0.1-0.7-0.1-1
		C48.3,48.8,48.3,48.5,48.2,48.5z"></path>
	<path d="M7.6,49.1c0-0.2-0.2-0.5-0.3-0.5c-0.1,0-0.2,0.3-0.2,0.5c0,0.3,0,0.6-0.1,1h0.4C7.6,49.7,7.6,49.3,7.6,49.1z"></path>
	<path d="M5.7,49.2c0.3-0.1,0.5-0.4,0.4-0.5c-0.1-0.1-0.3-0.1-0.5,0c-0.1-0.2-0.2-0.4-0.3-0.4C5.1,48.2,5,48.5,5,48.8
		c0,0,0,0.1,0,0.1c-0.5,0.2-1,0.7-1.5,1.1h0.9c0.2-0.1,0.4-0.3,0.6-0.4c0,0.1,0,0.3,0,0.4h0.6C5.6,49.7,5.6,49.5,5.7,49.2
		C5.7,49.2,5.7,49.2,5.7,49.2z"></path>
	<path d="M0.5,50c0-0.1,0-0.3,0-0.4C0.7,49.7,0.8,49.9,1,50h0.9c-0.4-0.4-1-0.8-1.5-1.1c0,0,0-0.1,0-0.1
		c0-0.3-0.1-0.6-0.2-0.6c-0.1,0-0.2,0.2-0.2,0.3V50H0.5z"></path>
	<path d="M9.9,49.4c-0.2-0.3-0.5,0.1-0.6,0.1L8.4,50h0.8l0.3-0.2C9.6,49.8,10.1,49.7,9.9,49.4z"></path>
	<path d="M3.1,48.4C3.1,48.4,3.1,48.4,3.1,48.4c0.5-0.3,0.9-0.7,1.4-0.9c0.2-0.1,0.4-0.3,0.3-0.4c-0.1-0.1-0.4,0-0.6,0
		C3.8,47.3,3.4,47.7,3,48c0,0,0,0,0,0l-0.1-2.3c0-0.1,0.1-0.5-0.2-0.5c-0.3,0-0.2,0.5-0.2,0.5L2.4,48c0,0,0,0,0,0
		c-0.3-0.4-0.8-0.7-1.2-0.9c-0.2-0.1-0.5-0.1-0.6,0c-0.1,0.1,0.1,0.3,0.3,0.4c0.5,0.2,0.9,0.6,1.3,0.9c0,0,0.1,0,0.1,0L2.3,50h0.8
		L3.1,48.4z"></path>
	<path d="M41.8,4c-0.1-0.1-0.2,0-0.3,0.1l-0.9,0.5c0,0,0,0,0,0c0.1-0.2,0.1-0.5,0.1-0.7c0-0.1-0.1-0.2-0.1-0.2
		c-0.1,0-0.1,0.1-0.1,0.2c0,0.2,0,0.5-0.1,0.7c0,0,0,0,0,0L39.6,5c0.1-0.3,0.2-0.7,0.2-1.1c0,0,0,0,0,0C40,3.8,40.1,3.7,40,3.7
		c0,0-0.1,0-0.2,0c0-0.1-0.1-0.2-0.1-0.2c-0.1,0-0.1,0.1-0.1,0.2c0,0,0,0,0,0c-0.3,0.2-0.6,0.4-0.8,0.7l-0.1-0.9c0,0,0,0,0,0
		c0.2-0.1,0.4-0.3,0.6-0.4c0.1,0,0.2-0.1,0.2-0.2c0,0-0.2,0-0.3,0C39,3,38.8,3.2,38.6,3.3c0,0,0,0,0,0l-0.1-1c0,0,0.1-0.2-0.1-0.2
		c-0.1,0-0.1,0.2-0.1,0.2l-0.1,1c0,0,0,0,0,0C38.2,3.2,38,3,37.8,2.9c-0.1,0-0.2,0-0.3,0c0,0,0.1,0.1,0.2,0.2
		c0.2,0.1,0.4,0.3,0.6,0.4c0,0,0,0,0,0l-0.1,0.9c-0.2-0.3-0.5-0.5-0.8-0.7c0,0,0,0,0,0c0-0.1,0-0.3-0.1-0.2c-0.1,0-0.1,0.1-0.1,0.2
		c-0.1,0-0.2,0-0.2,0c-0.1,0,0,0.2,0.2,0.2c0,0,0,0,0,0c0,0.3,0.1,0.8,0.2,1.1l-0.8-0.4c0,0,0,0,0,0c0-0.2-0.1-0.5-0.1-0.7
		c0-0.1,0-0.2-0.1-0.2c-0.1,0-0.1,0.2-0.1,0.2c0,0.2,0,0.5,0.1,0.7c0,0,0,0,0,0L35.5,4c0,0-0.2-0.2-0.3-0.1
		c-0.1,0.1,0.1,0.2,0.2,0.2l0.9,0.6c0,0,0,0,0,0c-0.2,0-0.5,0.1-0.6,0.2c-0.1,0-0.2,0.2-0.1,0.2c0,0.1,0.1,0,0.2,0
		c0.2-0.1,0.5-0.2,0.6-0.3c0,0,0,0,0,0l0.8,0.5c-0.3,0.1-0.7,0.2-1,0.4c0,0,0,0,0,0c-0.1-0.1-0.3-0.1-0.3,0c0,0.1,0,0.1,0.1,0.2
		c-0.1,0.1-0.1,0.2-0.1,0.2c0,0.1,0.2,0,0.3,0c0,0,0,0,0,0c0.3,0.2,0.7,0.3,1,0.4l-0.8,0.5c0,0,0,0,0,0c-0.2-0.1-0.4-0.2-0.6-0.3
		c-0.1-0.1-0.2-0.1-0.2,0c0,0.1,0.1,0.2,0.1,0.2c0.2,0.1,0.4,0.2,0.6,0.2c0,0,0,0,0,0l-0.9,0.6c0,0-0.2,0.1-0.2,0.2
		c0.1,0.1,0.2,0,0.3-0.1l0.9-0.5c0,0,0,0,0,0c-0.1,0.2-0.1,0.5-0.1,0.7c0,0.1,0.1,0.2,0.1,0.2c0.1,0,0.1-0.1,0.1-0.2
		c0-0.2,0-0.5,0.1-0.7c0,0,0,0,0,0l0.8-0.4c-0.1,0.3-0.2,0.7-0.2,1.1c0,0,0,0,0,0C37,7.9,36.9,8,37,8c0,0,0.1,0,0.2,0
		c0,0.1,0.1,0.2,0.1,0.2c0.1,0,0.1-0.1,0.1-0.2c0,0,0,0,0,0c0.3-0.1,0.6-0.4,0.8-0.7l0.1,0.9c0,0,0,0,0,0c-0.2,0.1-0.4,0.3-0.6,0.4
		c-0.1,0-0.2,0.1-0.2,0.2c0,0,0.2,0,0.3,0c0.2-0.1,0.4-0.3,0.5-0.4c0,0,0,0,0,0l0.1,1c0,0-0.1,0.2,0.1,0.2c0.1,0,0.1-0.2,0.1-0.2
		l0.1-1c0,0,0,0,0,0c0.1,0.2,0.3,0.3,0.5,0.4c0.1,0,0.2,0,0.3,0c0,0-0.1-0.1-0.2-0.2c-0.2-0.1-0.4-0.3-0.6-0.4c0,0,0,0,0,0l0.1-0.9
		c0.2,0.3,0.5,0.5,0.8,0.7c0,0,0,0,0,0c0,0.1,0,0.3,0.1,0.2c0,0,0.1-0.1,0.1-0.2C39.9,8,40,8,40,8c0.1,0,0-0.2-0.2-0.2c0,0,0,0,0,0
		c0-0.3-0.1-0.8-0.2-1.1l0.8,0.4c0,0,0,0,0,0c0,0.2,0.1,0.5,0.1,0.7c0,0.1,0,0.2,0.1,0.2c0.1,0,0.1-0.2,0.1-0.2c0-0.2,0-0.5-0.1-0.7
		c0,0,0,0,0,0l0.9,0.5c0,0,0.2,0.2,0.3,0.1c0.1-0.1-0.1-0.2-0.2-0.2L40.7,7c0,0,0,0,0,0c0.2,0,0.5-0.1,0.6-0.2
		c0.1,0,0.2-0.2,0.1-0.2c0-0.1-0.1,0-0.2,0c-0.2,0.1-0.5,0.2-0.6,0.3c0,0,0,0,0,0l-0.8-0.5c0.3-0.1,0.7-0.2,1-0.4c0,0,0,0,0,0
		c0.1,0.1,0.3,0.1,0.3,0c0-0.1,0-0.1-0.1-0.2c0.1-0.1,0.1-0.2,0.1-0.2c0-0.1-0.2,0-0.3,0c0,0,0,0,0,0c-0.3-0.2-0.7-0.3-1-0.4
		l0.8-0.5c0,0,0,0,0,0c0.2,0.1,0.5,0.2,0.6,0.3c0.1,0.1,0.2,0.1,0.2,0c0-0.1-0.1-0.2-0.1-0.2c-0.2-0.1-0.4-0.2-0.6-0.2c0,0,0,0,0,0
		l0.9-0.6C41.6,4.1,41.8,4.1,41.8,4z M40.6,5.8c-0.3,0.2-0.7,0.3-1,0.4l-0.5-0.3c-0.1-0.1-0.3,0-0.3,0.1c-0.1,0.1,0,0.3,0.1,0.3
		l0.6,0.3c0.1,0.3,0.1,0.7,0.2,1c-0.3-0.2-0.6-0.5-0.8-0.7l0-0.6c0-0.1-0.1-0.3-0.2-0.3c-0.1,0-0.3,0.1-0.3,0.3l0,0.6
		c-0.2,0.2-0.5,0.5-0.8,0.7c0-0.4,0.1-0.8,0.2-1l0.6-0.3c0.1-0.1,0.2-0.2,0.1-0.3c-0.1-0.1-0.2-0.2-0.3-0.1l-0.5,0.3
		c-0.3-0.1-0.7-0.2-1-0.4c0.3-0.2,0.7-0.3,1-0.4l0.5,0.3c0.1,0.1,0.3,0,0.3-0.1c0.1-0.1,0-0.3-0.1-0.3l-0.6-0.3
		c-0.1-0.3-0.1-0.7-0.2-1c0.3,0.2,0.6,0.5,0.8,0.7l0,0.6c0,0.1,0.1,0.2,0.3,0.2c0.1,0,0.2-0.1,0.2-0.2l0-0.6
		c0.2-0.2,0.5-0.5,0.8-0.7c0,0.4-0.1,0.8-0.2,1l-0.6,0.3c-0.1,0.1-0.2,0.2-0.1,0.3c0.1,0.1,0.2,0.2,0.3,0.1l0.5-0.3
		C39.9,5.6,40.2,5.7,40.6,5.8z"></path>
	<circle cx="38.5" cy="5.8" r="0.1"></circle>
	<path d="M21.9,6c-0.1-0.1-0.2,0-0.2,0l-0.8,0.4c0,0,0,0,0,0C21,6.2,21,6,21,5.9c0-0.1-0.1-0.2-0.1-0.2
		c0,0-0.1,0.1-0.1,0.2c0,0.2,0,0.4,0,0.6c0,0,0,0,0,0l-0.7,0.3c0.1-0.3,0.2-0.6,0.2-0.9c0,0,0,0,0,0c0.1,0,0.2-0.1,0.1-0.2
		c0,0-0.1,0-0.2,0c0-0.1-0.1-0.1-0.1-0.2C20,5.5,20,5.7,20,5.8c0,0,0,0,0,0c-0.3,0.1-0.5,0.4-0.7,0.6l0-0.8c0,0,0,0,0,0
		c0.2-0.1,0.3-0.2,0.5-0.3c0.1,0,0.2-0.1,0.1-0.1c0,0-0.2,0-0.2,0c-0.1,0.1-0.3,0.2-0.4,0.3c0,0,0,0,0,0l0-0.8c0,0,0.1-0.2-0.1-0.2
		c-0.1,0-0.1,0.2-0.1,0.2l0,0.8c0,0,0,0,0,0c-0.1-0.1-0.3-0.3-0.4-0.3c-0.1,0-0.2,0-0.2,0c0,0,0.1,0.1,0.1,0.1
		c0.2,0.1,0.3,0.2,0.5,0.3c0,0,0,0,0,0l0,0.8c-0.2-0.2-0.4-0.4-0.7-0.6c0,0,0,0,0,0c0-0.1,0-0.2-0.1-0.2c0,0-0.1,0.1-0.1,0.2
		c-0.1,0-0.2,0-0.2,0c-0.1,0,0,0.1,0.1,0.2c0,0,0,0,0,0c0,0.3,0,0.6,0.2,0.9l-0.7-0.3c0,0,0,0,0,0c0-0.2-0.1-0.4,0-0.6
		c0-0.1,0-0.2-0.1-0.2c0,0-0.1,0.1-0.1,0.2c0,0.2,0,0.4,0.1,0.5c0,0,0,0,0,0L16.7,6c0,0-0.2-0.1-0.2,0c-0.1,0.1,0.1,0.1,0.1,0.2
		l0.7,0.5c0,0,0,0,0,0c-0.2,0-0.4,0.1-0.5,0.2c-0.1,0-0.1,0.1-0.1,0.2c0,0,0.1,0,0.2,0c0.2-0.1,0.4-0.2,0.5-0.3c0,0,0,0,0,0l0.6,0.4
		c-0.3,0-0.6,0.2-0.8,0.3c0,0,0,0,0,0c-0.1-0.1-0.2-0.1-0.2,0c0,0,0,0.1,0.1,0.2C17,7.6,17,7.7,17,7.7c0,0.1,0.1,0,0.2,0
		c0,0,0,0,0,0c0.2,0.2,0.6,0.3,0.8,0.3l-0.6,0.4c0,0,0,0,0,0c-0.2-0.1-0.4-0.2-0.5-0.3c-0.1,0-0.2-0.1-0.2,0c0,0.1,0.1,0.2,0.1,0.2
		c0.1,0.1,0.3,0.2,0.5,0.2c0,0,0,0,0,0l-0.7,0.5c0,0-0.2,0.1-0.1,0.2c0.1,0.1,0.2,0,0.2-0.1l0.8-0.4c0,0,0,0,0,0
		c-0.1,0.2-0.1,0.4-0.1,0.5c0,0.1,0.1,0.2,0.1,0.2c0,0,0.1-0.1,0.1-0.2c0-0.2,0-0.4,0-0.6c0,0,0,0,0,0l0.7-0.3
		c-0.1,0.3-0.2,0.6-0.2,0.9c0,0,0,0,0,0c-0.1,0-0.2,0.1-0.1,0.2c0,0,0.1,0,0.2,0c0,0.1,0.1,0.1,0.1,0.2c0.1,0,0.1-0.1,0.1-0.2
		c0,0,0,0,0,0c0.3-0.1,0.5-0.4,0.7-0.6l0,0.8c0,0,0,0,0,0c-0.2,0.1-0.3,0.2-0.5,0.3c-0.1,0-0.2,0.1-0.1,0.1c0,0,0.2,0,0.2,0
		c0.1-0.1,0.3-0.2,0.4-0.3c0,0,0,0,0,0l0,0.8c0,0-0.1,0.2,0.1,0.2c0.1,0,0.1-0.2,0.1-0.2l0-0.8c0,0,0,0,0,0c0.1,0.1,0.3,0.3,0.4,0.3
		c0.1,0,0.2,0,0.2,0c0,0-0.1-0.1-0.1-0.1c-0.2-0.1-0.3-0.2-0.5-0.3c0,0,0,0,0,0l0-0.8c0.2,0.2,0.4,0.4,0.7,0.6c0,0,0,0,0,0
		c0,0.1,0,0.2,0.1,0.2c0,0,0.1-0.1,0.1-0.2c0.1,0,0.2,0,0.2,0c0.1,0,0-0.1-0.1-0.2c0,0,0,0,0,0c0-0.3,0-0.6-0.1-0.9l0.7,0.3
		c0,0,0,0,0,0c0,0.2,0.1,0.4,0,0.6c0,0.1,0,0.2,0.1,0.2c0,0,0.1-0.1,0.1-0.2c0-0.2,0-0.4-0.1-0.5c0,0,0,0,0,0l0.8,0.4
		c0,0,0.2,0.1,0.2,0.1C21.9,9,21.8,9,21.7,8.9L21,8.5c0,0,0,0,0,0c0.2,0,0.4-0.1,0.5-0.2c0.1,0,0.1-0.1,0.1-0.2c0,0-0.1,0-0.2,0
		c-0.2,0.1-0.4,0.2-0.5,0.3c0,0,0,0,0,0L20.3,8c0.3,0,0.6-0.2,0.8-0.3c0,0,0,0,0,0c0.1,0.1,0.2,0.1,0.2,0c0,0,0-0.1-0.1-0.2
		c0-0.1,0.1-0.1,0.1-0.2c0-0.1-0.1,0-0.2,0c0,0,0,0,0,0c-0.2-0.2-0.6-0.3-0.8-0.3l0.6-0.4c0,0,0,0,0,0c0.2,0.1,0.4,0.2,0.5,0.3
		c0.1,0,0.2,0.1,0.2,0c0,0-0.1-0.2-0.1-0.2c-0.1-0.1-0.3-0.2-0.5-0.2c0,0,0,0,0,0l0.7-0.5C21.8,6.1,21.9,6.1,21.9,6z M20.9,7.5
		c-0.3,0.1-0.6,0.2-0.8,0.3l-0.4-0.3c-0.1-0.1-0.2,0-0.3,0.1c-0.1,0.1,0,0.2,0.1,0.3l0.5,0.2C19.9,8.4,20,8.7,20,9
		c-0.3-0.2-0.5-0.4-0.7-0.6l0-0.5c0-0.1-0.1-0.2-0.2-0.2C19.1,7.8,19,7.8,19,8l0,0.5c-0.2,0.2-0.4,0.4-0.7,0.6
		c0-0.3,0.1-0.6,0.1-0.9l0.5-0.2C19,7.9,19,7.7,19,7.6c-0.1-0.1-0.2-0.1-0.3-0.1l-0.4,0.3c-0.2-0.1-0.5-0.2-0.8-0.3
		c0.3-0.1,0.6-0.2,0.8-0.3l0.4,0.3c0.1,0.1,0.2,0,0.3-0.1c0.1-0.1,0-0.2-0.1-0.3l-0.5-0.2c0-0.2-0.1-0.6-0.1-0.9
		c0.3,0.2,0.5,0.4,0.7,0.6l0,0.5c0,0.1,0.1,0.2,0.2,0.2c0.1,0,0.2-0.1,0.2-0.2l0-0.5c0.2-0.2,0.4-0.4,0.7-0.6c0,0.3-0.1,0.6-0.1,0.9
		l-0.5,0.2c-0.1,0.1-0.1,0.2-0.1,0.3c0.1,0.1,0.2,0.1,0.3,0.1l0.4-0.3C20.3,7.3,20.6,7.4,20.9,7.5z"></path>
	<circle cx="19.2" cy="7.5" r="0.1"></circle>
	<path d="M12.6,18.3c-0.1-0.1-0.3,0-0.3,0.1l-1.1,0.5c0,0,0,0,0,0c0.1-0.2,0.1-0.5,0.1-0.8c0-0.1-0.1-0.3-0.1-0.3
		c-0.1,0-0.1,0.1-0.1,0.3c0,0.3-0.1,0.6-0.1,0.8c0,0,0,0,0,0.1l-1,0.5c0.1-0.4,0.2-0.9,0.2-1.3c0,0,0,0,0,0c0.1-0.1,0.3-0.2,0.2-0.2
		c-0.1,0-0.2,0-0.3,0c0-0.1-0.1-0.2-0.2-0.2C10,17.7,10,17.9,10,18c0,0,0,0,0,0c-0.4,0.2-0.7,0.5-1,0.8l-0.1-1.1c0,0,0,0,0,0
		c0.2-0.1,0.5-0.3,0.7-0.5c0.1-0.1,0.2-0.2,0.2-0.2c-0.1,0-0.2,0-0.3,0c-0.2,0.1-0.4,0.3-0.6,0.5c0,0,0,0,0,0l-0.1-1.2
		c0,0,0.1-0.3-0.1-0.3c-0.2,0-0.1,0.2-0.1,0.3l-0.1,1.2c0,0,0,0,0,0c-0.2-0.2-0.4-0.4-0.6-0.5c-0.1,0-0.3-0.1-0.3,0
		c-0.1,0,0.1,0.1,0.2,0.2c0.2,0.1,0.5,0.3,0.7,0.5c0,0,0,0,0,0l-0.1,1.1c-0.3-0.3-0.6-0.6-1-0.8c0,0,0,0,0,0c0-0.2,0-0.3-0.1-0.3
		c-0.1,0-0.1,0.1-0.2,0.2c-0.1,0-0.2,0-0.3,0c-0.1,0.1,0.1,0.2,0.2,0.2c0,0,0,0,0,0c0,0.4,0.1,0.9,0.2,1.3l-1-0.5c0,0,0,0,0-0.1
		c0-0.3-0.1-0.6-0.1-0.8c0-0.1,0-0.3-0.1-0.3c-0.1,0-0.1,0.2-0.1,0.3c0,0.2,0,0.5,0.1,0.8c0,0,0,0,0,0l-1.1-0.5c0,0-0.2-0.2-0.3-0.1
		c-0.1,0.1,0.2,0.2,0.2,0.2l1,0.7c0,0,0,0,0,0c-0.3,0.1-0.5,0.2-0.7,0.3c-0.1,0.1-0.2,0.2-0.2,0.3c0,0.1,0.2,0,0.3-0.1
		c0.2-0.1,0.5-0.2,0.8-0.4c0,0,0,0,0,0l0.9,0.6c-0.4,0.1-0.9,0.2-1.2,0.4c0,0,0,0,0,0c-0.1-0.1-0.3-0.1-0.3,0c0,0.1,0.1,0.2,0.1,0.3
		c-0.1,0.1-0.1,0.2-0.1,0.3c0,0.1,0.2,0,0.3,0c0,0,0,0,0,0c0.3,0.2,0.8,0.4,1.2,0.4l-0.9,0.6c0,0,0,0,0,0c-0.2-0.1-0.5-0.2-0.8-0.4
		c-0.1-0.1-0.3-0.1-0.3-0.1c0,0.1,0.1,0.2,0.2,0.3c0.2,0.1,0.5,0.2,0.7,0.3c0,0,0,0,0,0l-1,0.7c0,0-0.3,0.1-0.2,0.2
		c0.1,0.1,0.3,0,0.3-0.1l1.1-0.5c0,0,0,0,0,0c-0.1,0.2-0.1,0.5-0.1,0.8c0,0.1,0.1,0.3,0.1,0.3c0.1,0,0.1-0.1,0.1-0.3
		c0-0.3,0.1-0.6,0.1-0.8c0,0,0,0,0-0.1l1-0.5c-0.1,0.4-0.2,0.9-0.2,1.3c0,0,0,0,0,0C7.1,22.9,6.9,23,7,23.1c0.1,0,0.2,0,0.3,0
		c0,0.1,0.1,0.2,0.2,0.2c0.1,0,0.1-0.1,0.1-0.3c0,0,0,0,0,0c0.4-0.2,0.7-0.5,1-0.8l0.1,1.1c0,0,0,0,0,0c-0.2,0.1-0.5,0.3-0.7,0.5
		c-0.1,0.1-0.2,0.2-0.2,0.2c0.1,0,0.2,0,0.3,0c0.2-0.1,0.4-0.3,0.6-0.5c0,0,0,0,0,0l0.1,1.2c0,0-0.1,0.3,0.1,0.3
		c0.2,0,0.1-0.2,0.1-0.3l0.1-1.2c0,0,0,0,0,0c0.2,0.2,0.4,0.4,0.6,0.5c0.1,0,0.3,0.1,0.3,0c0.1,0-0.1-0.1-0.2-0.2
		c-0.2-0.1-0.5-0.3-0.7-0.5c0,0,0,0,0,0L9,22.2c0.3,0.3,0.6,0.6,1,0.8c0,0,0,0,0,0c0,0.2,0,0.3,0.1,0.3c0.1,0,0.1-0.1,0.2-0.2
		c0.1,0,0.2,0,0.3,0c0.1-0.1-0.1-0.2-0.2-0.2c0,0,0,0,0,0c0-0.4-0.1-0.9-0.2-1.3l1,0.5c0,0,0,0,0,0.1c0,0.3,0.1,0.6,0.1,0.8
		c0,0.1,0,0.3,0.1,0.3c0.1,0,0.1-0.2,0.1-0.3c0-0.2,0-0.5-0.1-0.8c0,0,0,0,0,0l1.1,0.5c0,0,0.2,0.2,0.3,0.1c0.1-0.1-0.2-0.2-0.2-0.2
		l-1-0.7c0,0,0,0,0,0c0.3-0.1,0.5-0.2,0.7-0.3c0.1-0.1,0.2-0.2,0.2-0.3c0-0.1-0.2,0-0.3,0.1c-0.2,0.1-0.5,0.2-0.8,0.4c0,0,0,0,0,0
		l-0.9-0.6c0.4-0.1,0.9-0.2,1.2-0.4c0,0,0,0,0,0c0.1,0.1,0.3,0.1,0.3,0c0-0.1-0.1-0.2-0.1-0.3c0.1-0.1,0.1-0.2,0.1-0.3
		c0-0.1-0.2,0-0.3,0c0,0,0,0,0,0c-0.3-0.2-0.8-0.4-1.2-0.4l0.9-0.6c0,0,0,0,0,0c0.2,0.1,0.5,0.2,0.8,0.4c0.1,0.1,0.3,0.1,0.3,0.1
		c0-0.1-0.1-0.2-0.2-0.3c-0.2-0.1-0.5-0.2-0.7-0.3c0,0,0,0,0,0l1-0.7C12.4,18.5,12.7,18.4,12.6,18.3z M11.2,20.5
		c-0.4,0.2-0.8,0.3-1.2,0.4l-0.6-0.4c-0.1-0.1-0.3,0-0.4,0.1c-0.1,0.1,0,0.3,0.1,0.4l0.7,0.3c0.1,0.3,0.2,0.8,0.2,1.2
		c-0.4-0.2-0.7-0.6-1-0.8l0-0.7c0-0.2-0.1-0.3-0.3-0.3c-0.2,0-0.3,0.1-0.3,0.3l0,0.7c-0.3,0.2-0.6,0.5-1,0.8c0-0.4,0.1-0.9,0.2-1.2
		l0.7-0.3c0.1-0.1,0.2-0.3,0.1-0.4c-0.1-0.1-0.3-0.2-0.4-0.1L7.5,21c-0.3-0.1-0.8-0.2-1.2-0.4c0.4-0.2,0.8-0.3,1.2-0.4l0.6,0.4
		c0.1,0.1,0.3,0,0.4-0.1c0.1-0.1,0-0.3-0.1-0.4l-0.7-0.3c-0.1-0.3-0.2-0.8-0.2-1.2c0.4,0.2,0.7,0.6,1,0.8l0,0.7
		c0,0.2,0.1,0.3,0.3,0.3c0.2,0,0.3-0.1,0.3-0.3l0-0.7c0.3-0.2,0.6-0.5,1-0.8c0,0.4-0.1,0.9-0.2,1.2L9.1,20C9,20,8.9,20.2,9,20.4
		c0.1,0.1,0.3,0.2,0.4,0.1l0.6-0.4C10.3,20.2,10.8,20.3,11.2,20.5z"></path>
	<circle cx="8.8" cy="20.5" r="0.1"></circle>
	<path d="M48.7,38.6c-0.1-0.1-0.2,0-0.2,0.1l-0.9,0.4c0,0,0,0,0,0c0.1-0.2,0.1-0.5,0.1-0.6c0-0.1-0.1-0.2-0.1-0.2
		c-0.1,0-0.1,0.1-0.1,0.2c0,0.2,0,0.5-0.1,0.7c0,0,0,0,0,0l-0.8,0.4c0.1-0.3,0.2-0.7,0.2-1c0,0,0,0,0,0c0.1-0.1,0.2-0.2,0.2-0.2
		c0,0-0.1,0-0.2,0c0-0.1-0.1-0.2-0.1-0.2c-0.1,0-0.1,0.1-0.1,0.2c0,0,0,0,0,0c-0.3,0.1-0.6,0.4-0.8,0.7l-0.1-0.9c0,0,0,0,0,0
		c0.2-0.1,0.4-0.3,0.6-0.4c0.1,0,0.2-0.1,0.2-0.2c0,0-0.2,0-0.3,0c-0.2,0.1-0.4,0.2-0.5,0.4c0,0,0,0,0,0l-0.1-1c0,0,0.1-0.2-0.1-0.2
		c-0.1,0-0.1,0.2-0.1,0.2l-0.1,1c0,0,0,0,0,0c-0.1-0.2-0.3-0.3-0.5-0.4c-0.1,0-0.2,0-0.3,0c0,0,0.1,0.1,0.2,0.2
		c0.2,0.1,0.4,0.3,0.6,0.4c0,0,0,0,0,0l-0.1,0.9c-0.2-0.3-0.5-0.5-0.8-0.7c0,0,0,0,0,0c0-0.1,0-0.3-0.1-0.2c-0.1,0-0.1,0.1-0.1,0.2
		c-0.1,0-0.2,0-0.2,0c-0.1,0,0,0.1,0.2,0.2c0,0,0,0,0,0c0,0.3,0.1,0.7,0.2,1l-0.8-0.4c0,0,0,0,0,0c0-0.2-0.1-0.5-0.1-0.7
		c0-0.1,0-0.2-0.1-0.2c-0.1,0-0.1,0.2-0.1,0.2c0,0.2,0,0.4,0.1,0.6c0,0,0,0,0,0l-0.9-0.4c0,0-0.2-0.2-0.2-0.1
		c-0.1,0.1,0.1,0.2,0.2,0.2l0.8,0.5c0,0,0,0,0,0c-0.2,0-0.5,0.1-0.6,0.2c-0.1,0-0.2,0.2-0.1,0.2c0,0.1,0.1,0,0.2,0
		c0.2-0.1,0.4-0.2,0.6-0.3c0,0,0,0,0,0l0.7,0.5c-0.3,0.1-0.7,0.2-1,0.4c0,0,0,0,0,0c-0.1-0.1-0.2-0.1-0.3,0c0,0.1,0,0.1,0.1,0.2
		C43,40.5,43,40.6,43,40.7c0,0.1,0.2,0,0.3,0c0,0,0,0,0,0c0.3,0.2,0.7,0.3,1,0.4l-0.8,0.5c0,0,0,0,0,0c-0.2-0.1-0.4-0.2-0.6-0.3
		c-0.1-0.1-0.2-0.1-0.2,0c0,0.1,0.1,0.2,0.1,0.2c0.2,0.1,0.4,0.2,0.6,0.2c0,0,0,0,0,0l-0.8,0.5c0,0-0.2,0.1-0.2,0.2
		c0.1,0.1,0.2,0,0.2-0.1l0.9-0.4c0,0,0,0,0,0c-0.1,0.2-0.1,0.5-0.1,0.6c0,0.1,0.1,0.2,0.1,0.2c0.1,0,0.1-0.1,0.1-0.2
		c0-0.2,0-0.5,0.1-0.7c0,0,0,0,0,0l0.8-0.4c-0.1,0.3-0.2,0.7-0.2,1c0,0,0,0,0,0c-0.1,0.1-0.2,0.2-0.2,0.2c0,0,0.1,0,0.2,0
		c0,0.1,0.1,0.2,0.1,0.2c0.1,0,0.1-0.1,0.1-0.2c0,0,0,0,0,0c0.3-0.1,0.6-0.4,0.8-0.7l0.1,0.9c0,0,0,0,0,0c-0.2,0.1-0.4,0.3-0.6,0.4
		c-0.1,0-0.2,0.1-0.2,0.2c0,0,0.2,0,0.3,0c0.2-0.1,0.4-0.2,0.5-0.4c0,0,0,0,0,0l0.1,1c0,0-0.1,0.2,0.1,0.2c0.1,0,0.1-0.2,0.1-0.2
		l0.1-1c0,0,0,0,0,0c0.1,0.2,0.3,0.3,0.5,0.4c0.1,0,0.2,0,0.3,0c0,0-0.1-0.1-0.2-0.2c-0.2-0.1-0.4-0.3-0.6-0.4c0,0,0,0,0,0l0.1-0.9
		c0.2,0.3,0.5,0.5,0.8,0.7c0,0,0,0,0,0c0,0.1,0,0.3,0.1,0.2c0,0,0.1-0.1,0.1-0.2c0.1,0,0.2,0,0.2,0c0.1,0,0-0.1-0.2-0.2c0,0,0,0,0,0
		c0-0.3-0.1-0.7-0.2-1l0.8,0.4c0,0,0,0,0,0c0,0.2,0.1,0.5,0.1,0.7c0,0.1,0,0.2,0.1,0.2c0.1,0,0.1-0.2,0.1-0.2c0-0.2,0-0.4-0.1-0.6
		c0,0,0,0,0,0l0.9,0.4c0,0,0.2,0.2,0.2,0.1c0.1-0.1-0.1-0.2-0.2-0.2l-0.8-0.5c0,0,0,0,0,0c0.2,0,0.4-0.1,0.6-0.2
		c0.1,0,0.1-0.2,0.1-0.2c0-0.1-0.1,0-0.2,0c-0.2,0.1-0.4,0.2-0.6,0.3c0,0,0,0,0,0L46.8,41c0.3-0.1,0.7-0.2,1-0.4c0,0,0,0,0,0
		c0.1,0.1,0.3,0.1,0.3,0c0-0.1,0-0.1-0.1-0.2c0.1-0.1,0.1-0.2,0.1-0.2c0-0.1-0.2,0-0.3,0c0,0,0,0,0,0c-0.3-0.2-0.7-0.3-1-0.4
		l0.7-0.5c0,0,0,0,0,0c0.2,0.1,0.4,0.2,0.6,0.3c0.1,0.1,0.2,0.1,0.2,0c0-0.1-0.1-0.2-0.1-0.2c-0.2-0.1-0.4-0.2-0.6-0.2c0,0,0,0,0,0
		l0.8-0.5C48.6,38.8,48.8,38.7,48.7,38.6z M47.5,40.5c-0.3,0.2-0.7,0.3-1,0.4l-0.5-0.3c-0.1-0.1-0.3,0-0.3,0.1
		c-0.1,0.1,0,0.3,0.1,0.3l0.5,0.3c0.1,0.3,0.1,0.7,0.2,1c-0.3-0.2-0.6-0.5-0.8-0.6l0-0.6c0-0.1-0.1-0.2-0.2-0.2
		c-0.1,0-0.2,0.1-0.2,0.2l0,0.6c-0.2,0.2-0.5,0.5-0.8,0.6c0-0.4,0.1-0.7,0.2-1l0.5-0.3c0.1-0.1,0.2-0.2,0.1-0.3
		c-0.1-0.1-0.2-0.2-0.3-0.1l-0.5,0.3c-0.3-0.1-0.6-0.2-1-0.4c0.3-0.2,0.7-0.3,1-0.4l0.5,0.3c0.1,0.1,0.3,0,0.3-0.1
		c0.1-0.1,0-0.3-0.1-0.3l-0.5-0.3c-0.1-0.3-0.1-0.7-0.2-1c0.3,0.2,0.6,0.5,0.8,0.7l0,0.6c0,0.1,0.1,0.2,0.2,0.2
		c0.1,0,0.2-0.1,0.2-0.2l0-0.6c0.2-0.2,0.5-0.5,0.8-0.7c0,0.4-0.1,0.7-0.2,1L45.8,40c-0.1,0.1-0.2,0.2-0.1,0.3s0.2,0.2,0.3,0.1
		l0.5-0.3C46.8,40.2,47.2,40.3,47.5,40.5z"></path>
	<circle cx="45.5" cy="40.5" r="0.1"></circle>
	<path d="M33.2,10c-0.1-0.1-0.2,0-0.2,0.1L32,10.5c0,0,0,0,0,0c0.1-0.2,0.1-0.5,0.1-0.6c0-0.1-0.1-0.2-0.1-0.2
		c-0.1,0-0.1,0.1-0.1,0.2c0,0.2,0,0.5-0.1,0.7c0,0,0,0,0,0L31.1,11c0.1-0.3,0.2-0.7,0.2-1c0,0,0,0,0,0c0.1-0.1,0.2-0.2,0.2-0.2
		c0,0-0.1,0-0.2,0c0-0.1-0.1-0.2-0.1-0.2C31,9.5,31,9.7,31,9.8c0,0,0,0,0,0c-0.3,0.1-0.6,0.4-0.8,0.7l-0.1-0.9c0,0,0,0,0,0
		c0.2-0.1,0.4-0.3,0.6-0.4c0.1,0,0.2-0.1,0.2-0.2c0,0-0.2,0-0.3,0c-0.2,0.1-0.4,0.2-0.5,0.4c0,0,0,0,0,0l-0.1-1c0,0,0.1-0.2-0.1-0.2
		c-0.1,0-0.1,0.2-0.1,0.2l-0.1,1c0,0,0,0,0,0c-0.1-0.2-0.3-0.3-0.5-0.4c-0.1,0-0.2,0-0.3,0c0,0,0.1,0.1,0.2,0.2
		c0.2,0.1,0.4,0.3,0.6,0.4c0,0,0,0,0,0l-0.1,0.9c-0.2-0.3-0.5-0.5-0.8-0.7c0,0,0,0,0,0c0-0.1,0-0.3-0.1-0.2c-0.1,0-0.1,0.1-0.1,0.2
		c-0.1,0-0.2,0-0.2,0c-0.1,0,0,0.1,0.2,0.2c0,0,0,0,0,0c0,0.3,0.1,0.7,0.2,1l-0.8-0.4c0,0,0,0,0,0c0-0.2-0.1-0.5-0.1-0.7
		c0-0.1,0-0.2-0.1-0.2c-0.1,0-0.1,0.2-0.1,0.2c0,0.2,0,0.4,0.1,0.6c0,0,0,0,0,0l-0.9-0.4c0,0-0.2-0.2-0.2-0.1
		c-0.1,0.1,0.1,0.2,0.2,0.2l0.8,0.5c0,0,0,0,0,0c-0.2,0-0.5,0.1-0.6,0.2c-0.1,0-0.2,0.2-0.1,0.2c0,0.1,0.1,0,0.2,0
		c0.2-0.1,0.4-0.2,0.6-0.3c0,0,0,0,0,0l0.7,0.5c-0.3,0.1-0.7,0.2-1,0.4c0,0,0,0,0,0c-0.1-0.1-0.2-0.1-0.3,0c0,0.1,0,0.1,0.1,0.2
		c-0.1,0.1-0.1,0.2-0.1,0.2c0,0.1,0.2,0,0.3,0c0,0,0,0,0,0c0.3,0.2,0.7,0.3,1,0.4L28,12.9c0,0,0,0,0,0c-0.2-0.1-0.4-0.2-0.6-0.3
		c-0.1-0.1-0.2-0.1-0.2,0c0,0.1,0.1,0.2,0.1,0.2c0.2,0.1,0.4,0.2,0.6,0.2c0,0,0,0,0,0L27,13.5c0,0-0.2,0.1-0.2,0.2
		c0.1,0.1,0.2,0,0.2-0.1l0.9-0.4c0,0,0,0,0,0c-0.1,0.2-0.1,0.5-0.1,0.6c0,0.1,0.1,0.2,0.1,0.2c0.1,0,0.1-0.1,0.1-0.2
		c0-0.2,0-0.5,0.1-0.7c0,0,0,0,0,0l0.8-0.4c-0.1,0.3-0.2,0.7-0.2,1c0,0,0,0,0,0c-0.1,0.1-0.2,0.2-0.2,0.2c0,0,0.1,0,0.2,0
		c0,0.1,0.1,0.2,0.1,0.2c0.1,0,0.1-0.1,0.1-0.2c0,0,0,0,0,0c0.3-0.1,0.6-0.4,0.8-0.7l0.1,0.9c0,0,0,0,0,0c-0.2,0.1-0.4,0.3-0.6,0.4
		c-0.1,0-0.2,0.1-0.2,0.2c0,0,0.2,0,0.3,0c0.2-0.1,0.4-0.2,0.5-0.4c0,0,0,0,0,0l0.1,1c0,0-0.1,0.2,0.1,0.2c0.1,0,0.1-0.2,0.1-0.2
		l0.1-1c0,0,0,0,0,0c0.1,0.2,0.3,0.3,0.5,0.4c0.1,0,0.2,0,0.3,0c0,0-0.1-0.1-0.2-0.2c-0.2-0.1-0.4-0.3-0.6-0.4c0,0,0,0,0,0l0.1-0.9
		c0.2,0.3,0.5,0.5,0.8,0.7c0,0,0,0,0,0c0,0.1,0,0.3,0.1,0.2c0,0,0.1-0.1,0.1-0.2c0.1,0,0.2,0,0.2,0c0.1,0,0-0.1-0.2-0.2c0,0,0,0,0,0
		c0-0.3-0.1-0.7-0.2-1l0.8,0.4c0,0,0,0,0,0c0,0.2,0.1,0.5,0.1,0.7c0,0.1,0,0.2,0.1,0.2c0.1,0,0.1-0.2,0.1-0.2c0-0.2,0-0.4-0.1-0.6
		c0,0,0,0,0,0l0.9,0.4c0,0,0.2,0.2,0.2,0.1c0.1-0.1-0.1-0.2-0.2-0.2L32.2,13c0,0,0,0,0,0c0.2,0,0.4-0.1,0.6-0.2
		c0.1,0,0.1-0.2,0.1-0.2c0-0.1-0.1,0-0.2,0c-0.2,0.1-0.4,0.2-0.6,0.3c0,0,0,0,0,0l-0.7-0.5c0.3-0.1,0.7-0.2,1-0.4c0,0,0,0,0,0
		c0.1,0.1,0.3,0.1,0.3,0c0-0.1,0-0.1-0.1-0.2c0.1-0.1,0.1-0.2,0.1-0.2c0-0.1-0.2,0-0.3,0c0,0,0,0,0,0c-0.3-0.2-0.7-0.3-1-0.4
		l0.7-0.5c0,0,0,0,0,0c0.2,0.1,0.4,0.2,0.6,0.3c0.1,0.1,0.2,0.1,0.2,0c0-0.1-0.1-0.2-0.1-0.2c-0.2-0.1-0.4-0.2-0.6-0.2c0,0,0,0,0,0
		l0.8-0.5C33,10.2,33.2,10.2,33.2,10z M32,11.9c-0.3,0.2-0.7,0.3-1,0.4l-0.5-0.3c-0.1-0.1-0.3,0-0.3,0.1c-0.1,0.1,0,0.3,0.1,0.3
		l0.5,0.3c0.1,0.3,0.1,0.7,0.2,1c-0.3-0.2-0.6-0.5-0.8-0.6l0-0.6c0-0.1-0.1-0.2-0.2-0.2c-0.1,0-0.2,0.1-0.2,0.2l0,0.6
		c-0.2,0.2-0.5,0.5-0.8,0.6c0-0.4,0.1-0.7,0.2-1l0.5-0.3c0.1-0.1,0.2-0.2,0.1-0.3c-0.1-0.1-0.2-0.2-0.3-0.1L29,12.2
		c-0.3-0.1-0.6-0.2-1-0.4c0.3-0.2,0.7-0.3,1-0.4l0.5,0.3c0.1,0.1,0.3,0,0.3-0.1c0.1-0.1,0-0.3-0.1-0.3l-0.5-0.3
		c-0.1-0.3-0.1-0.7-0.2-1c0.3,0.2,0.6,0.5,0.8,0.7l0,0.6c0,0.1,0.1,0.2,0.2,0.2c0.1,0,0.2-0.1,0.2-0.2l0-0.6
		c0.2-0.2,0.5-0.5,0.8-0.7c0,0.4-0.1,0.7-0.2,1l-0.5,0.3c-0.1,0.1-0.2,0.2-0.1,0.3c0.1,0.1,0.2,0.2,0.3,0.1l0.5-0.3
		C31.3,11.6,31.7,11.7,32,11.9z"></path>
	<circle cx="30" cy="11.9" r="0.1"></circle>
	<path d="M11.8,32.8c-0.1-0.1-0.2,0-0.2,0.1l-0.9,0.4c0,0,0,0,0,0c0.1-0.2,0.1-0.5,0.1-0.6c0-0.1-0.1-0.2-0.1-0.2
		c-0.1,0-0.1,0.1-0.1,0.2c0,0.2,0,0.5-0.1,0.7c0,0,0,0,0,0l-0.8,0.4c0.1-0.3,0.2-0.7,0.2-1c0,0,0,0,0,0c0.1-0.1,0.2-0.2,0.2-0.2
		c0,0-0.1,0-0.2,0c0-0.1-0.1-0.2-0.1-0.2c-0.1,0-0.1,0.1-0.1,0.2c0,0,0,0,0,0c-0.3,0.1-0.6,0.4-0.8,0.7l-0.1-0.9c0,0,0,0,0,0
		C9,32.3,9.2,32.1,9.4,32c0.1,0,0.2-0.1,0.2-0.2c0,0-0.2,0-0.3,0c-0.2,0.1-0.4,0.2-0.5,0.4c0,0,0,0,0,0l-0.1-1c0,0,0.1-0.2-0.1-0.2
		c-0.1,0-0.1,0.2-0.1,0.2l-0.1,1c0,0,0,0,0,0c-0.1-0.2-0.3-0.3-0.5-0.4c-0.1,0-0.2,0-0.3,0c0,0,0.1,0.1,0.2,0.2
		c0.2,0.1,0.4,0.3,0.6,0.4c0,0,0,0,0,0l-0.1,0.9C8.3,33,8,32.7,7.7,32.6c0,0,0,0,0,0c0-0.1,0-0.3-0.1-0.2c-0.1,0-0.1,0.1-0.1,0.2
		c-0.1,0-0.2,0-0.2,0c-0.1,0,0,0.1,0.2,0.2c0,0,0,0,0,0c0,0.3,0.1,0.7,0.2,1l-0.8-0.4c0,0,0,0,0,0c0-0.2-0.1-0.5-0.1-0.7
		c0-0.1,0-0.2-0.1-0.2c-0.1,0-0.1,0.2-0.1,0.2c0,0.2,0,0.4,0.1,0.6c0,0,0,0,0,0l-0.9-0.4c0,0-0.2-0.2-0.2-0.1
		C5.5,32.9,5.7,33,5.7,33l0.8,0.5c0,0,0,0,0,0c-0.2,0-0.4,0.1-0.6,0.2c-0.1,0-0.1,0.2-0.1,0.2c0,0.1,0.1,0,0.2,0
		c0.2-0.1,0.4-0.2,0.6-0.3c0,0,0,0,0,0l0.7,0.5c-0.3,0.1-0.7,0.2-1,0.4c0,0,0,0,0,0c-0.1-0.1-0.2-0.1-0.3,0c0,0.1,0,0.1,0.1,0.2
		c-0.1,0.1-0.1,0.2-0.1,0.2c0,0.1,0.2,0,0.3,0c0,0,0,0,0,0c0.3,0.2,0.7,0.3,1,0.4l-0.7,0.5c0,0,0,0,0,0c-0.2-0.1-0.4-0.2-0.6-0.3
		c-0.1-0.1-0.2-0.1-0.2,0c0,0.1,0.1,0.2,0.1,0.2c0.2,0.1,0.4,0.2,0.6,0.2c0,0,0,0,0,0l-0.8,0.5c0,0-0.2,0.1-0.2,0.2
		c0.1,0.1,0.2,0,0.2-0.1L6.7,36c0,0,0,0,0,0c-0.1,0.2-0.1,0.5-0.1,0.6c0,0.1,0.1,0.2,0.1,0.2c0.1,0,0.1-0.1,0.1-0.2
		c0-0.2,0-0.5,0.1-0.7c0,0,0,0,0,0l0.8-0.4c-0.1,0.3-0.2,0.7-0.2,1c0,0,0,0,0,0c-0.1,0.1-0.2,0.2-0.2,0.2c0,0,0.1,0,0.2,0
		c0,0.1,0.1,0.2,0.1,0.2c0.1,0,0.1-0.1,0.1-0.2c0,0,0,0,0,0C8,36.5,8.3,36.3,8.5,36l0.1,0.9c0,0,0,0,0,0c-0.2,0.1-0.4,0.3-0.6,0.4
		c-0.1,0-0.2,0.1-0.2,0.2c0,0,0.2,0,0.3,0c0.2-0.1,0.4-0.2,0.5-0.4c0,0,0,0,0,0l0.1,1c0,0-0.1,0.2,0.1,0.2c0.1,0,0.1-0.2,0.1-0.2
		l0.1-1c0,0,0,0,0,0c0.1,0.2,0.3,0.3,0.5,0.4c0.1,0,0.2,0,0.3,0c0,0-0.1-0.1-0.2-0.2C9.2,37.2,9,37,8.9,36.9c0,0,0,0,0,0L8.9,36
		c0.2,0.3,0.5,0.5,0.8,0.7c0,0,0,0,0,0c0,0.1,0,0.3,0.1,0.2c0,0,0.1-0.1,0.1-0.2c0.1,0,0.2,0,0.2,0c0.1,0,0-0.1-0.2-0.2c0,0,0,0,0,0
		c0-0.3-0.1-0.7-0.2-1l0.8,0.4c0,0,0,0,0,0c0,0.2,0.1,0.5,0.1,0.7c0,0.1,0,0.2,0.1,0.2c0.1,0,0.1-0.2,0.1-0.2c0-0.2,0-0.4-0.1-0.6
		l0,0l0.9,0.4c0,0,0.2,0.2,0.2,0.1c0.1-0.1-0.1-0.2-0.2-0.2l-0.8-0.5c0,0,0,0,0,0c0.2,0,0.4-0.1,0.6-0.2c0.1,0,0.1-0.2,0.1-0.2
		c0-0.1-0.1,0-0.2,0c-0.2,0.1-0.4,0.2-0.6,0.3c0,0,0,0,0,0L10,35.2c0.3-0.1,0.7-0.2,1-0.4c0,0,0,0,0,0c0.1,0.1,0.3,0.1,0.3,0
		c0-0.1,0-0.1-0.1-0.2c0.1-0.1,0.1-0.2,0.1-0.2c0-0.1-0.2,0-0.3,0c0,0,0,0,0,0c-0.3-0.2-0.7-0.3-1-0.4l0.7-0.5c0,0,0,0,0,0
		c0.2,0.1,0.4,0.2,0.6,0.3c0.1,0.1,0.2,0.1,0.2,0c0-0.1-0.1-0.2-0.1-0.2c-0.2-0.1-0.4-0.2-0.6-0.2c0,0,0,0,0,0l0.8-0.5
		C11.7,33,11.9,32.9,11.8,32.8z M10.7,34.6c-0.3,0.2-0.7,0.3-1,0.4l-0.5-0.3c-0.1-0.1-0.3,0-0.3,0.1c-0.1,0.1,0,0.3,0.1,0.3l0.5,0.3
		c0.1,0.3,0.1,0.7,0.2,1c-0.3-0.2-0.6-0.5-0.8-0.6l0-0.6c0-0.1-0.1-0.2-0.2-0.2c-0.1,0-0.2,0.1-0.2,0.2l0,0.6
		c-0.2,0.2-0.5,0.4-0.8,0.6c0-0.4,0.1-0.7,0.2-1l0.5-0.3c0.1-0.1,0.2-0.2,0.1-0.3c-0.1-0.1-0.2-0.2-0.3-0.1L7.7,35
		c-0.3-0.1-0.6-0.2-1-0.4c0.3-0.2,0.7-0.3,1-0.4l0.5,0.3c0.1,0.1,0.3,0,0.3-0.1c0.1-0.1,0-0.3-0.1-0.3l-0.5-0.3
		c-0.1-0.3-0.1-0.7-0.2-1c0.3,0.2,0.6,0.5,0.8,0.6l0,0.6c0,0.1,0.1,0.2,0.2,0.2c0.1,0,0.2-0.1,0.2-0.2l0-0.6
		c0.2-0.2,0.5-0.5,0.8-0.6c0,0.4-0.1,0.7-0.2,1L9,34.2c-0.1,0.1-0.2,0.2-0.1,0.3c0.1,0.1,0.2,0.2,0.3,0.1l0.5-0.3
		C10,34.4,10.4,34.5,10.7,34.6z"></path>
	<ellipse cx="8.7" cy="34.6" rx="0.1" ry="0.1"></ellipse>
	<path d="M14.6,44.7c0-0.1-0.1,0-0.2,0L13.9,45c0,0,0,0,0,0c0-0.1,0.1-0.3,0.1-0.4c0,0,0-0.1-0.1-0.2c0,0,0,0.1,0,0.1
		c0,0.1,0,0.3,0,0.4c0,0,0,0,0,0l-0.5,0.3c0.1-0.2,0.1-0.5,0.1-0.7c0,0,0,0,0,0c0.1,0,0.1-0.1,0.1-0.1c0,0-0.1,0-0.2,0
		c0-0.1-0.1-0.1-0.1-0.1c0,0-0.1,0.1-0.1,0.2c0,0,0,0,0,0c-0.2,0.1-0.4,0.3-0.5,0.4l0-0.6c0,0,0,0,0,0c0.1-0.1,0.2-0.2,0.4-0.3
		c0.1,0,0.1-0.1,0.1-0.1c0,0-0.1,0-0.2,0c-0.1,0-0.2,0.2-0.3,0.3c0,0,0,0,0,0l0-0.6c0,0,0-0.2,0-0.2c-0.1,0,0,0.1,0,0.2l0,0.6
		c0,0,0,0,0,0c-0.1-0.1-0.2-0.2-0.3-0.3c0,0-0.1,0-0.2,0c0,0,0,0.1,0.1,0.1c0.1,0.1,0.3,0.2,0.4,0.3c0,0,0,0,0,0l0,0.6
		c-0.1-0.2-0.3-0.3-0.5-0.4c0,0,0,0,0,0c0-0.1,0-0.2-0.1-0.2c0,0-0.1,0.1-0.1,0.1c-0.1,0-0.1,0-0.1,0c0,0,0,0.1,0.1,0.1c0,0,0,0,0,0
		c0,0.2,0,0.5,0.1,0.7l-0.5-0.3c0,0,0,0,0,0c0-0.1,0-0.3,0-0.4c0-0.1,0-0.1,0-0.1c0,0-0.1,0.1-0.1,0.2c0,0.1,0,0.3,0.1,0.4
		c0,0,0,0,0,0l-0.6-0.3c0,0-0.1-0.1-0.2,0c0,0.1,0.1,0.1,0.1,0.1l0.5,0.4c0,0,0,0,0,0c-0.1,0-0.3,0.1-0.4,0.2c0,0-0.1,0.1-0.1,0.1
		c0,0,0.1,0,0.1,0c0.1-0.1,0.3-0.1,0.4-0.2c0,0,0,0,0,0l0.5,0.3c-0.2,0-0.5,0.1-0.6,0.2c0,0,0,0,0,0c-0.1,0-0.2-0.1-0.2,0
		c0,0,0,0.1,0.1,0.1c0,0-0.1,0.1-0.1,0.1c0,0.1,0.1,0,0.2,0c0,0,0,0,0,0c0.2,0.1,0.4,0.2,0.6,0.2l-0.5,0.3c0,0,0,0,0,0
		c-0.1-0.1-0.3-0.1-0.4-0.2c-0.1,0-0.1-0.1-0.1,0c0,0,0,0.1,0.1,0.1c0.1,0.1,0.3,0.1,0.4,0.2c0,0,0,0,0,0l-0.5,0.4
		c0,0-0.2,0-0.1,0.1c0,0.1,0.1,0,0.2,0l0.6-0.3c0,0,0,0,0,0c0,0.1-0.1,0.3-0.1,0.4c0,0.1,0,0.1,0.1,0.2c0,0,0-0.1,0-0.1
		c0-0.1,0-0.3,0-0.4c0,0,0,0,0,0l0.5-0.3c-0.1,0.2-0.1,0.5-0.1,0.7c0,0,0,0,0,0c-0.1,0-0.1,0.1-0.1,0.1c0,0,0.1,0,0.1,0
		c0,0.1,0.1,0.1,0.1,0.1c0,0,0.1-0.1,0.1-0.2c0,0,0,0,0,0c0.2-0.1,0.4-0.3,0.5-0.4l0,0.6c0,0,0,0,0,0c-0.1,0.1-0.2,0.2-0.4,0.3
		c-0.1,0-0.1,0.1-0.1,0.1c0,0,0.1,0,0.2,0c0.1,0,0.2-0.2,0.3-0.3c0,0,0,0,0,0l0,0.6c0,0,0,0.2,0,0.2c0.1,0,0-0.1,0-0.2l0-0.6
		c0,0,0,0,0,0c0.1,0.1,0.2,0.2,0.3,0.3c0,0,0.1,0,0.2,0c0,0,0-0.1-0.1-0.1c-0.1-0.1-0.3-0.2-0.4-0.3c0,0,0,0,0,0l0-0.6
		c0.1,0.2,0.3,0.3,0.5,0.4c0,0,0,0,0,0c0,0.1,0,0.2,0.1,0.2c0,0,0.1-0.1,0.1-0.1c0.1,0,0.1,0,0.2,0c0,0,0-0.1-0.1-0.1c0,0,0,0,0,0
		c0-0.2,0-0.5-0.1-0.7l0.5,0.3c0,0,0,0,0,0c0,0.1,0,0.3,0,0.4c0,0.1,0,0.2,0,0.1c0,0,0.1-0.1,0.1-0.2c0-0.1,0-0.3-0.1-0.4l0,0
		l0.6,0.3c0,0,0.1,0.1,0.2,0c0-0.1-0.1-0.1-0.1-0.1L14,46.6c0,0,0,0,0,0c0.1,0,0.3-0.1,0.4-0.2c0,0,0.1-0.1,0.1-0.1c0,0-0.1,0-0.1,0
		c-0.1,0.1-0.3,0.1-0.4,0.2c0,0,0,0,0,0l-0.5-0.3c0.2,0,0.5-0.1,0.6-0.2c0,0,0,0,0,0c0.1,0,0.2,0.1,0.2,0c0,0,0-0.1-0.1-0.1
		c0,0,0.1-0.1,0.1-0.1c0-0.1-0.1,0-0.2,0c0,0,0,0,0,0c-0.2-0.1-0.4-0.2-0.6-0.2l0.5-0.3c0,0,0,0,0,0c0.1,0.1,0.3,0.1,0.4,0.2
		c0.1,0,0.1,0.1,0.1,0c0,0,0-0.1-0.1-0.1c-0.1-0.1-0.3-0.1-0.4-0.2c0,0,0,0,0,0l0.5-0.4C14.5,44.8,14.7,44.8,14.6,44.7z M13.9,45.9
		c-0.2,0.1-0.4,0.2-0.6,0.2l-0.3-0.2c-0.1,0-0.2,0-0.2,0.1c0,0.1,0,0.2,0.1,0.2l0.3,0.2c0,0.2,0.1,0.4,0.1,0.7
		c-0.2-0.1-0.4-0.3-0.5-0.4l0-0.4c0-0.1-0.1-0.2-0.2-0.2c-0.1,0-0.2,0.1-0.2,0.2l0,0.4c-0.1,0.1-0.3,0.3-0.5,0.4
		c0-0.2,0.1-0.5,0.1-0.7l0.3-0.2c0.1,0,0.1-0.1,0.1-0.2c0-0.1-0.1-0.1-0.2-0.1l-0.3,0.2c-0.2-0.1-0.4-0.1-0.6-0.2
		c0.2-0.1,0.4-0.2,0.6-0.2l0.3,0.2c0.1,0,0.2,0,0.2-0.1c0-0.1,0-0.2-0.1-0.2L12,45.4c0-0.2-0.1-0.4-0.1-0.7c0.2,0.1,0.4,0.3,0.5,0.4
		l0,0.4c0,0.1,0.1,0.2,0.2,0.2c0.1,0,0.2-0.1,0.2-0.2l0-0.4c0.1-0.1,0.3-0.3,0.5-0.4c0,0.2-0.1,0.5-0.1,0.7l-0.3,0.2
		c-0.1,0-0.1,0.1-0.1,0.2c0,0.1,0.1,0.1,0.2,0.1l0.3-0.2C13.4,45.7,13.7,45.8,13.9,45.9z"></path>
	<circle cx="12.6" cy="45.9" r="0.1"></circle>
	<path d="M36.8,41.3c-0.1-0.1-0.2,0-0.2,0l-0.7,0.4c0,0,0,0,0,0c0.1-0.2,0.1-0.4,0.1-0.5c0-0.1-0.1-0.2-0.1-0.2
		c0,0-0.1,0.1-0.1,0.2c0,0.2,0,0.4,0,0.6c0,0,0,0,0,0L35,42.1c0.1-0.3,0.2-0.6,0.1-0.9c0,0,0,0,0,0c0.1,0,0.2-0.1,0.1-0.2
		c0,0-0.1,0-0.2,0c0-0.1-0.1-0.1-0.1-0.2C35,40.8,35,41,35,41.1c0,0,0,0,0,0c-0.2,0.1-0.5,0.3-0.7,0.6l0-0.7c0,0,0,0,0,0
		c0.1-0.1,0.3-0.2,0.5-0.3c0.1,0,0.2-0.1,0.1-0.1c0,0-0.2,0-0.2,0c-0.1,0.1-0.3,0.2-0.4,0.3c0,0,0,0,0,0l0-0.8c0,0,0-0.2-0.1-0.2
		c-0.1,0-0.1,0.2-0.1,0.2l0,0.8c0,0,0,0,0,0c-0.1-0.1-0.3-0.3-0.4-0.3c-0.1,0-0.2,0-0.2,0c0,0,0.1,0.1,0.1,0.1
		c0.2,0.1,0.3,0.2,0.5,0.3c0,0,0,0,0,0l0,0.7c-0.2-0.2-0.4-0.4-0.7-0.6c0,0,0,0,0,0c0-0.1,0-0.2-0.1-0.2c0,0-0.1,0.1-0.1,0.2
		c-0.1,0-0.2,0-0.2,0c-0.1,0,0,0.1,0.1,0.2c0,0,0,0,0,0c0,0.3,0,0.6,0.1,0.9l-0.7-0.3c0,0,0,0,0,0c0-0.2,0-0.4,0-0.6
		c0-0.1,0-0.2-0.1-0.2c0,0-0.1,0.1-0.1,0.2c0,0.2,0,0.4,0.1,0.5c0,0,0,0,0,0l-0.7-0.4c0,0-0.1-0.1-0.2,0c-0.1,0.1,0.1,0.1,0.1,0.2
		l0.7,0.4c0,0,0,0,0,0c-0.2,0-0.4,0.1-0.5,0.2c-0.1,0-0.1,0.1-0.1,0.2c0,0,0.1,0,0.2,0c0.2-0.1,0.4-0.2,0.5-0.3c0,0,0,0,0,0l0.6,0.4
		c-0.3,0-0.6,0.1-0.8,0.3c0,0,0,0,0,0c-0.1-0.1-0.2-0.1-0.2,0c0,0,0,0.1,0.1,0.2c0,0.1-0.1,0.1-0.1,0.2c0,0.1,0.1,0,0.2,0
		c0,0,0,0,0,0c0.2,0.2,0.5,0.3,0.8,0.3l-0.6,0.4c0,0,0,0,0,0c-0.2-0.1-0.4-0.1-0.5-0.2c-0.1,0-0.2-0.1-0.2,0c0,0,0.1,0.1,0.1,0.2
		c0.1,0.1,0.3,0.2,0.5,0.2c0,0,0,0,0,0l-0.7,0.4c0,0-0.2,0.1-0.1,0.2c0.1,0.1,0.2,0,0.2,0l0.7-0.4c0,0,0,0,0,0
		c-0.1,0.2-0.1,0.4-0.1,0.5c0,0.1,0.1,0.2,0.1,0.2c0,0,0.1-0.1,0.1-0.2c0-0.2,0-0.4,0-0.6c0,0,0,0,0,0l0.7-0.3
		c-0.1,0.3-0.2,0.6-0.1,0.9c0,0,0,0,0,0c-0.1,0-0.2,0.1-0.1,0.2c0,0,0.1,0,0.2,0c0,0.1,0.1,0.1,0.1,0.2c0.1,0,0.1-0.1,0.1-0.2
		c0,0,0,0,0,0c0.2-0.1,0.5-0.3,0.7-0.6l0,0.7c0,0,0,0,0,0c-0.1,0.1-0.3,0.2-0.5,0.3c-0.1,0-0.2,0.1-0.1,0.1c0,0,0.2,0,0.2,0
		c0.1-0.1,0.3-0.2,0.4-0.3c0,0,0,0,0,0l0,0.8c0,0,0,0.2,0.1,0.2c0.1,0,0.1-0.2,0.1-0.2l0-0.8c0,0,0,0,0,0c0.1,0.1,0.3,0.3,0.4,0.3
		c0.1,0,0.2,0,0.2,0c0,0-0.1-0.1-0.1-0.1c-0.2-0.1-0.3-0.2-0.5-0.3c0,0,0,0,0,0l0-0.7c0.2,0.2,0.4,0.4,0.7,0.6c0,0,0,0,0,0
		c0,0.1,0,0.2,0.1,0.2c0,0,0.1-0.1,0.1-0.2c0.1,0,0.2,0,0.2,0c0.1,0,0-0.1-0.1-0.2c0,0,0,0,0,0c0-0.3,0-0.6-0.1-0.9l0.7,0.3
		c0,0,0,0,0,0c0,0.2,0,0.4,0,0.6c0,0.1,0,0.2,0.1,0.2c0,0,0.1-0.1,0.1-0.2c0-0.2,0-0.4-0.1-0.5l0,0l0.7,0.4c0,0,0.1,0.1,0.2,0
		c0.1-0.1-0.1-0.1-0.1-0.2l-0.7-0.4c0,0,0,0,0,0c0.2,0,0.4-0.1,0.5-0.2c0.1,0,0.1-0.1,0.1-0.2c0,0-0.1,0-0.2,0
		c-0.2,0.1-0.4,0.2-0.5,0.2c0,0,0,0,0,0l-0.6-0.4c0.3,0,0.6-0.1,0.8-0.3c0,0,0,0,0,0c0.1,0.1,0.2,0.1,0.2,0c0,0,0-0.1-0.1-0.2
		c0-0.1,0.1-0.1,0.1-0.2c0-0.1-0.1,0-0.2,0c0,0,0,0,0,0c-0.2-0.2-0.5-0.3-0.8-0.3l0.6-0.4c0,0,0,0,0,0c0.2,0.1,0.4,0.2,0.5,0.2
		c0.1,0,0.2,0.1,0.2,0c0,0-0.1-0.1-0.1-0.2c-0.1-0.1-0.3-0.2-0.5-0.2c0,0,0,0,0,0l0.7-0.4C36.6,41.4,36.8,41.4,36.8,41.3z
		 M35.8,42.8c-0.3,0.1-0.6,0.2-0.8,0.3l-0.4-0.3c-0.1-0.1-0.2,0-0.3,0.1c-0.1,0.1,0,0.2,0.1,0.3l0.4,0.2c0,0.2,0.1,0.5,0.1,0.8
		c-0.3-0.2-0.5-0.4-0.7-0.5l0-0.5c0-0.1-0.1-0.2-0.2-0.2C34,43,34,43.1,34,43.2l0,0.5c-0.2,0.2-0.4,0.4-0.7,0.5
		c0-0.3,0.1-0.6,0.1-0.8l0.4-0.2C34,43.1,34,43,34,42.9c-0.1-0.1-0.2-0.1-0.3-0.1l-0.4,0.3c-0.2-0.1-0.5-0.2-0.8-0.3
		c0.3-0.1,0.6-0.2,0.8-0.3l0.4,0.3c0.1,0.1,0.2,0,0.3-0.1c0.1-0.1,0-0.2-0.1-0.3l-0.4-0.2c0-0.2-0.1-0.5-0.1-0.8
		c0.3,0.2,0.5,0.4,0.7,0.5l0,0.5c0,0.1,0.1,0.2,0.2,0.2c0.1,0,0.2-0.1,0.2-0.2l0-0.5c0.2-0.2,0.4-0.4,0.7-0.5c0,0.3-0.1,0.6-0.1,0.8
		l-0.4,0.2c-0.1,0.1-0.1,0.2-0.1,0.3c0.1,0.1,0.2,0.1,0.3,0.1l0.4-0.3C35.2,42.5,35.5,42.6,35.8,42.8z"></path>
	<circle cx="34.2" cy="42.8" r="0.1"></circle>
</g></g></pattern></defs><rect width="100%" height="100%" id="RctSolidBackground1" fill="url(#pattern-343-layer-1)"></rect></svg>