<svg xmlns="http://www.w3.org/2000/svg" version="1.1" xmlns:xlink="http://www.w3.org/1999/xlink" xmlns:svgjs="http://svgjs.com/svgjs" id="svg-pattern-338" width="100%" height="100%"><defs><pattern x="0" y="0" width="50" height="50" patternUnits="userSpaceOnUse" id="pattern-338-layer-1"><g id="PatternRootContent1" transform="scale(1)"><rect class="fill0" width="50" height="50" fill="#161616"></rect>
<g class="fill1" fill="#3b3b3bff">
	<path d="M0.3,15.7l0.3-4.6c0,0,0,0,0,0c0.7,0.7,1.5,1.5,2.3,1.9c0.3,0.2,1,0.2,1.2,0.1c0.2-0.2-0.3-0.6-0.7-0.8
		c-0.9-0.5-1.8-1.3-2.6-1.8c-0.1,0-0.1-0.1-0.2-0.1l0.2-4.1c1,1.2,2.4,2.4,3.7,3.1c0,0.1,0,0.1,0,0.2c0,0.6,0.1,1.3,0.4,1.1
		c0.2-0.1,0.5-0.5,0.6-0.9c0.4,0.1,0.9,0.1,1.1-0.1C7,9.5,6.5,9,6,8.8c0,0-0.1,0-0.1-0.1C5.9,7.2,5.6,5.3,5,3.9l3.7,1.9
		c0,0.1,0,0.1,0,0.2c0,1,0.3,2.2,0.2,3.2c0,0.5,0.1,1.1,0.3,1C9.5,10,9.8,9.4,9.8,9.1c0.1-0.9-0.1-2-0.5-3c0,0,0,0,0,0l4.1,2.1
		c0.2,0.1,0.8,0.8,1.1,0.3c0.3-0.5-0.6-0.8-0.8-0.8L10,5.1c0,0,0,0,0,0c1-0.2,2.1-0.6,2.8-1.1c0.3-0.2,0.7-0.8,0.7-1
		c-0.1-0.3-0.6,0-1,0.2c-0.9,0.6-2,0.9-2.9,1.4c-0.1,0-0.1,0.1-0.2,0.1L5.9,2.4c1.5-0.2,3.3-0.8,4.6-1.7c0,0,0.1,0.1,0.1,0.1
		c0.5,0.3,1.2,0.5,1.2,0.2c0-0.2-0.2-0.6-0.5-1h-2C7.8,0.8,6.1,1.3,4.8,1.7L2.5,0.2C2-0.1,1.3,0,1,0.6C0.7,1.1,0.9,1.8,1.4,2.1
		l2.5,1.3c0.3,1.3,0.7,3,0.8,4.7C3.2,7.1,1.9,5.9,1,5l0.2-2.8c0-0.6-0.5-1.1-1.1-1.1c0,0,0,0,0,0v15.7c0,0,0,0,0,0
		C0.6,16.8,0.3,15.9,0.3,15.7z"></path>
	<path d="M0.5,0H0v0.5c0,0,0,0,0,0C0.3,0.5,0.5,0.3,0.5,0z"></path>
	<path d="M48.9,2.2L49,5c-1,0.9-2.3,2.1-3.7,3c0.1-1.7,0.5-3.4,0.8-4.7l2.5-1.3c0.5-0.3,0.7-1,0.4-1.5
		c-0.3-0.5-1-0.7-1.5-0.4l-2.3,1.5c-1.2-0.4-2.9-0.9-4.4-1.7h-2c-0.3,0.3-0.5,0.7-0.5,1c0,0.4,0.7,0.2,1.2-0.2c0,0,0.1-0.1,0.1-0.1
		c1.3,0.9,3,1.5,4.5,1.7l-3.4,2.3c0,0-0.1-0.1-0.2-0.1c-0.9-0.5-2-0.8-2.9-1.4c-0.4-0.2-1-0.5-1-0.2c0,0.3,0.4,0.8,0.7,1
		c0.7,0.5,1.8,0.9,2.8,1.1c0,0,0,0,0,0l-3.8,2.5c-0.2,0.1-1.1,0.3-0.8,0.8c0.3,0.5,1-0.2,1.1-0.3l4.1-2.1c0,0,0,0,0,0
		c-0.3,0.9-0.5,2.1-0.5,3c0,0.4,0.3,1,0.6,1.1c0.3,0.1,0.3-0.5,0.3-1c0-1,0.2-2.2,0.2-3.2c0-0.1,0-0.1,0-0.2L45,3.9
		c-0.5,1.4-0.9,3.3-0.8,4.8c0,0-0.1,0-0.1,0.1c-0.5,0.3-1,0.7-0.7,0.9c0.2,0.1,0.7,0.1,1.1,0.1c0.1,0.4,0.4,0.8,0.6,0.9
		c0.3,0.2,0.5-0.5,0.4-1.1c0,0,0-0.1,0-0.2c1.4-0.7,2.8-1.9,3.7-3.1l0.2,4.1c-0.1,0-0.1,0.1-0.2,0.1c-0.8,0.5-1.7,1.3-2.6,1.8
		c-0.4,0.2-0.9,0.6-0.7,0.8c0.2,0.2,0.9,0.1,1.2-0.1c0.8-0.4,1.7-1.1,2.3-1.9c0,0,0,0,0,0l0.3,4.6c0,0.2-0.3,1.1,0.3,1.1V1.1
		C49.4,1.1,48.9,1.6,48.9,2.2z"></path>
	<path d="M49.5,0c0,0.3,0.2,0.5,0.5,0.5V0H49.5z"></path>
	<path d="M10.6,49.2c0,0-0.1,0.1-0.1,0.1c-1.3-0.9-3.1-1.5-4.6-1.7l3.4-2.3c0,0,0.1,0.1,0.2,0.1c0.9,0.5,2,0.8,2.9,1.4
		c0.4,0.2,1,0.5,1,0.2c0-0.3-0.4-0.8-0.7-1c-0.7-0.5-1.8-0.9-2.8-1.1c0,0,0,0,0,0l3.8-2.5c0.2-0.1,1.1-0.3,0.8-0.8
		c-0.3-0.5-1,0.2-1.1,0.3l-4.1,2.1c0,0,0,0,0,0c0.3-0.9,0.5-2.1,0.5-3c0-0.4-0.3-1-0.6-1.1c-0.3-0.1-0.3,0.5-0.3,1
		c0,1-0.2,2.2-0.2,3.2c0,0.1,0,0.1,0,0.2L5,46.1c0.5-1.4,0.9-3.3,0.8-4.8c0,0,0.1,0,0.1-0.1c0.5-0.3,1-0.7,0.7-0.9
		c-0.2-0.1-0.7-0.1-1.1-0.1c-0.1-0.4-0.4-0.8-0.6-0.9c-0.3-0.1-0.5,0.5-0.4,1.1c0,0.1,0,0.1,0,0.2c-1.4,0.7-2.8,1.9-3.7,3.1
		l-0.2-4.1c0.1,0,0.1-0.1,0.2-0.1c0.8-0.5,1.7-1.3,2.6-1.8c0.4-0.2,0.9-0.6,0.7-0.8c-0.2-0.2-0.9-0.1-1.2,0.1
		c-0.8,0.4-1.7,1.1-2.3,1.9c0,0,0,0,0,0l-0.3-4.6c0-0.2,0.3-1.1-0.3-1.1c0,0,0,0,0,0v15.7c0,0,0,0,0,0c0.6,0,1.1-0.5,1.1-1.1L1,45
		c1-0.9,2.3-2.1,3.7-3c-0.1,1.7-0.5,3.4-0.8,4.7l-2.5,1.3c-0.5,0.3-0.7,1-0.4,1.5c0.3,0.5,1,0.7,1.5,0.4l2.3-1.5
		c1.2,0.4,2.9,0.9,4.4,1.7h2c0.3-0.3,0.5-0.7,0.5-1C11.7,48.7,11.1,48.9,10.6,49.2z"></path>
	<path d="M0,49.5C0,49.5,0,49.5,0,49.5L0,50h0.5C0.5,49.7,0.3,49.5,0,49.5z"></path>
	<path d="M45.2,48.3l2.3,1.5c0.5,0.3,1.2,0.1,1.5-0.4c0.3-0.5,0.1-1.2-0.4-1.5l-2.5-1.3c-0.3-1.3-0.7-3-0.8-4.7
		c1.4,0.9,2.7,2.1,3.7,3l-0.2,2.8c0,0.6,0.5,1.1,1.1,1.1V33.2c-0.6,0-0.3,0.9-0.3,1.1l-0.3,4.6c0,0,0,0,0,0
		c-0.7-0.7-1.5-1.5-2.3-1.9c-0.3-0.2-1-0.2-1.2-0.1c-0.2,0.2,0.3,0.6,0.7,0.8c0.9,0.5,1.8,1.3,2.6,1.8c0.1,0,0.1,0.1,0.2,0.1
		l-0.2,4.1c-1-1.2-2.4-2.4-3.7-3.1c0-0.1,0-0.1,0-0.2c0-0.6-0.1-1.3-0.4-1.1c-0.2,0.1-0.5,0.5-0.6,0.9c-0.4-0.1-0.9-0.1-1.1,0.1
		C43,40.5,43.5,41,44,41.2c0,0,0.1,0,0.1,0.1c-0.1,1.5,0.3,3.4,0.8,4.8l-3.7-1.9c0-0.1,0-0.1,0-0.2c0-1-0.3-2.2-0.2-3.2
		c0-0.5-0.1-1.1-0.3-1c-0.3,0.1-0.5,0.7-0.6,1.1c-0.1,0.9,0.1,2,0.5,3c0,0,0,0,0,0l-4.1-2.1c-0.2-0.1-0.8-0.8-1.1-0.3
		c-0.3,0.5,0.6,0.8,0.8,0.8l3.8,2.5c0,0,0,0,0,0c-1,0.2-2.1,0.6-2.8,1.1c-0.3,0.2-0.7,0.8-0.7,1c0.1,0.3,0.6,0,1-0.2
		c0.9-0.6,2-0.9,2.9-1.4c0.1,0,0.1-0.1,0.2-0.1l3.4,2.3c-1.5,0.2-3.3,0.8-4.6,1.7c0,0-0.1-0.1-0.1-0.1c-0.5-0.3-1.1-0.5-1.2-0.2
		c0,0.2,0.2,0.6,0.5,1h2C42.2,49.2,43.9,48.7,45.2,48.3z"></path>
	<path d="M50,49.5c-0.3,0-0.5,0.2-0.5,0.5H50V49.5z"></path>
	<path d="M25,1.8c1,0,1.8-0.8,1.8-1.8h-3.7C23.2,1,24,1.8,25,1.8z"></path>
	<path d="M25,48.2c-1,0-1.8,0.8-1.8,1.8h3.7C26.8,49,26,48.2,25,48.2z"></path>
	<path d="M38.8,32.6L35,30.1c0,0,0,0,0,0c1-0.2,2.1-0.6,2.8-1.1c0.3-0.2,0.7-0.8,0.7-1c-0.1-0.3-0.6,0-1,0.2
		c-0.9,0.6-2,0.9-2.9,1.4c-0.1,0-0.1,0.1-0.2,0.1l-3.4-2.3c1.5-0.2,3.3-0.8,4.6-1.7c0,0,0.1,0.1,0.1,0.1c0.5,0.3,1.2,0.5,1.2,0.2
		c0-0.2-0.2-0.6-0.5-1c0.3-0.3,0.5-0.7,0.5-1c0-0.4-0.7-0.2-1.2,0.2c0,0-0.1,0.1-0.1,0.1c-1.3-0.9-3.1-1.5-4.6-1.7l3.4-2.3
		c0,0,0.1,0.1,0.2,0.1c0.9,0.5,2,0.8,2.9,1.4c0.4,0.2,1,0.5,1,0.2c0-0.3-0.4-0.8-0.7-1c-0.7-0.5-1.8-0.9-2.8-1.1c0,0,0,0,0,0
		l3.8-2.5c0.2-0.1,1.1-0.3,0.8-0.8c-0.3-0.5-1,0.2-1.1,0.3l-4.1,2.1c0,0,0,0,0,0c0.3-0.9,0.5-2.1,0.5-3c0-0.4-0.3-1-0.6-1.1
		c-0.3-0.1-0.3,0.5-0.3,1c0,1-0.2,2.2-0.2,3.2c0,0.1,0,0.1,0,0.2L30,21.1c0.5-1.4,0.9-3.3,0.8-4.8c0,0,0.1,0,0.1-0.1
		c0.5-0.3,1-0.7,0.7-0.9c-0.2-0.1-0.7-0.1-1.1-0.1c-0.1-0.4-0.4-0.8-0.6-0.9c-0.3-0.1-0.5,0.5-0.4,1.1c0,0.1,0,0.1,0,0.2
		c-1.4,0.7-2.8,1.9-3.7,3.1l-0.2-4.1c0.1,0,0.1-0.1,0.2-0.1c0.8-0.5,1.7-1.3,2.6-1.8c0.4-0.2,0.9-0.6,0.7-0.8
		c-0.2-0.2-0.9-0.1-1.2,0.1c-0.8,0.4-1.7,1.1-2.3,1.9c0,0,0,0,0,0l-0.3-4.6c0-0.2,0.3-1.1-0.3-1.1c-0.6,0-0.3,0.9-0.3,1.1l-0.3,4.6
		c0,0,0,0,0,0c-0.7-0.7-1.5-1.5-2.3-1.9c-0.3-0.2-1-0.2-1.2-0.1c-0.2,0.2,0.3,0.6,0.7,0.8c0.9,0.5,1.8,1.3,2.6,1.8
		c0.1,0,0.1,0.1,0.2,0.1l-0.2,4.1c-1-1.2-2.4-2.4-3.7-3.1c0-0.1,0-0.1,0-0.2c0-0.6-0.1-1.3-0.4-1.1c-0.2,0.1-0.5,0.5-0.6,0.9
		c-0.4-0.1-0.9-0.1-1.1,0.1C18,15.5,18.5,16,19,16.2c0,0,0.1,0,0.1,0.1c-0.1,1.5,0.3,3.4,0.8,4.8l-3.7-1.9c0-0.1,0-0.1,0-0.2
		c0-1-0.3-2.2-0.2-3.2c0-0.5-0.1-1.1-0.3-1c-0.3,0.1-0.5,0.7-0.6,1.1c-0.1,0.9,0.1,2,0.5,3c0,0,0,0,0,0l-4.1-2.1
		c-0.2-0.1-0.8-0.8-1.1-0.3c-0.3,0.5,0.6,0.8,0.8,0.8l3.8,2.5c0,0,0,0,0,0c-1,0.2-2.1,0.6-2.8,1.1c-0.3,0.2-0.7,0.8-0.7,1
		c0.1,0.3,0.6,0,1-0.2c0.9-0.6,2-0.9,2.9-1.4c0.1,0,0.1-0.1,0.2-0.1l3.4,2.3c-1.5,0.2-3.3,0.8-4.6,1.7c0,0-0.1-0.1-0.1-0.1
		c-0.5-0.3-1.1-0.5-1.2-0.2c0,0.2,0.2,0.6,0.5,1c-0.3,0.3-0.5,0.7-0.5,1c0,0.4,0.7,0.2,1.2-0.2c0,0,0.1-0.1,0.1-0.1
		c1.3,0.9,3,1.5,4.5,1.7l-3.4,2.3c0,0-0.1-0.1-0.2-0.1c-0.9-0.5-2-0.8-2.9-1.4c-0.4-0.2-1-0.5-1-0.2c0,0.3,0.4,0.8,0.7,1
		c0.7,0.5,1.8,0.9,2.8,1.1c0,0,0,0,0,0l-3.8,2.5c-0.2,0.1-1.1,0.3-0.8,0.8c0.3,0.5,1-0.2,1.1-0.3l4.1-2.1c0,0,0,0,0,0
		c-0.3,0.9-0.5,2.1-0.5,3c0,0.4,0.3,1,0.6,1.1c0.3,0.1,0.3-0.5,0.3-1c0-1,0.2-2.2,0.2-3.2c0-0.1,0-0.1,0-0.2l3.7-1.9
		c-0.5,1.4-0.9,3.3-0.8,4.8c0,0-0.1,0-0.1,0.1c-0.5,0.3-1,0.7-0.7,0.9c0.2,0.1,0.7,0.1,1.1,0.1c0.1,0.4,0.4,0.8,0.6,0.9
		c0.3,0.2,0.5-0.5,0.4-1.1c0,0,0-0.1,0-0.2c1.4-0.7,2.8-1.9,3.7-3.1l0.2,4.1c-0.1,0-0.1,0.1-0.2,0.1c-0.8,0.5-1.7,1.3-2.6,1.8
		c-0.4,0.2-0.9,0.6-0.7,0.8c0.2,0.2,0.9,0.1,1.2-0.1c0.8-0.4,1.7-1.1,2.3-1.9c0,0,0,0,0,0l0.3,4.6c0,0.2-0.3,1.1,0.3,1.1
		c0.6,0,0.3-0.9,0.3-1.1l0.3-4.6c0,0,0,0,0,0c0.7,0.7,1.5,1.5,2.3,1.9c0.3,0.2,1,0.2,1.2,0.1c0.2-0.2-0.3-0.6-0.7-0.8
		c-0.9-0.5-1.8-1.3-2.6-1.8c-0.1,0-0.1-0.1-0.2-0.1l0.2-4.1c1,1.2,2.4,2.4,3.7,3.1c0,0.1,0,0.1,0,0.2c0,0.6,0.1,1.3,0.4,1.1
		c0.2-0.1,0.5-0.5,0.6-0.9c0.4,0.1,0.9,0.1,1.1-0.1c0.3-0.2-0.2-0.7-0.7-0.9c0,0-0.1,0-0.1-0.1c0.1-1.5-0.3-3.4-0.8-4.8l3.7,1.9
		c0,0.1,0,0.1,0,0.2c0,1,0.3,2.2,0.2,3.2c0,0.5,0.1,1.1,0.3,1c0.3-0.1,0.5-0.7,0.6-1.1c0.1-0.9-0.1-2-0.5-3c0,0,0,0,0,0l4.1,2.1
		c0.2,0.1,0.8,0.8,1.1,0.3C39.9,32.9,38.9,32.7,38.8,32.6z M29.8,26.7l-2.3-1.5C27,24.9,26.3,25,26,25.6c-0.3,0.5-0.1,1.2,0.4,1.5
		l2.5,1.3c0.3,1.3,0.7,3,0.8,4.7c-1.4-0.9-2.7-2.1-3.7-3l0.2-2.8c0-0.6-0.5-1.1-1.1-1.1c-0.6,0-1.1,0.5-1.1,1.1L24,30
		c-1,0.9-2.3,2.1-3.7,3c0.1-1.7,0.5-3.4,0.8-4.7l2.5-1.3c0.5-0.3,0.7-1,0.4-1.5c-0.3-0.5-1-0.7-1.5-0.4l-2.3,1.5
		c-1.2-0.4-2.9-0.9-4.4-1.7c1.5-0.8,3.2-1.3,4.4-1.7l2.3,1.5c0.5,0.3,1.2,0.1,1.5-0.4c0.3-0.5,0.1-1.2-0.4-1.5l-2.5-1.3
		c-0.3-1.3-0.7-3-0.8-4.7c1.4,0.9,2.7,2.1,3.7,3l-0.2,2.8c0,0.6,0.5,1.1,1.1,1.1c0.6,0,1.1-0.5,1.1-1.1L26,20c1-0.9,2.3-2.1,3.7-3
		c-0.1,1.7-0.5,3.4-0.8,4.7l-2.5,1.3c-0.5,0.3-0.7,1-0.4,1.5c0.3,0.5,1,0.7,1.5,0.4l2.3-1.5c1.2,0.4,2.9,0.9,4.4,1.7
		C32.8,25.8,31.1,26.3,29.8,26.7z"></path>
	<circle cx="25" cy="25" r="0.5"></circle>
	<path d="M1.8,25c0-1-0.8-1.8-1.8-1.8v3.7C1,26.8,1.8,26,1.8,25z"></path>
	<path d="M48.2,25c0,1,0.8,1.8,1.8,1.8v-3.7C49,23.2,48.2,24,48.2,25z"></path>
</g></g></pattern></defs><rect width="100%" height="100%" id="RctSolidBackground1" fill="url(#pattern-338-layer-1)"></rect></svg>