<svg width="800" height="800" viewBox="0 0 800 800" fill="none" xmlns="http://www.w3.org/2000/svg">
<path d="M281.866 483.133C284.552 481.103 287.619 479.636 290.885 478.821C294.151 478.005 297.548 477.857 300.873 478.386C304.197 478.916 307.381 480.111 310.232 481.9C313.083 483.69 315.544 486.036 317.466 488.8C323.126 495.027 329.529 500.535 336.533 505.2C355.33 517.678 377.439 524.227 400 524C428.5 524 449.566 514.567 463.466 505.267C470.47 500.602 476.873 495.094 482.533 488.867L483.233 488C487.233 482.709 493.172 479.224 499.742 478.311C506.312 477.398 512.975 479.133 518.266 483.133C523.557 487.134 527.043 493.072 527.955 499.642C528.868 506.212 527.133 512.876 523.133 518.167L522.233 519.3C521.8 519.833 521.233 520.567 520.5 521.4C519.033 523.067 517 525.367 514.366 528C507.281 535.033 499.521 541.352 491.2 546.867C464.183 564.799 432.424 574.248 400 574C367.575 574.248 335.816 564.799 308.8 546.867C300.478 541.352 292.718 535.033 285.633 528C282.856 525.244 280.23 522.34 277.766 519.3C269.133 508.233 270.333 491.8 281.866 483.133Z" fill="#545454"/>
<path fill-rule="evenodd" clip-rule="evenodd" d="M400 33.3333C197.5 33.3333 33.333 197.5 33.333 400C33.333 602.5 197.5 766.667 400 766.667C602.5 766.667 766.666 602.5 766.666 400C766.666 197.5 602.5 33.3333 400 33.3333ZM83.333 400C83.333 316.015 116.696 235.469 176.083 176.083C235.469 116.696 316.014 83.3333 400 83.3333C483.985 83.3333 564.53 116.696 623.917 176.083C683.303 235.469 716.666 316.015 716.666 400C716.666 483.985 683.303 564.531 623.917 623.917C564.53 683.304 483.985 716.667 400 716.667C316.014 716.667 235.469 683.304 176.083 623.917C116.696 564.531 83.333 483.985 83.333 400Z" fill="#545454"/>
<path d="M300 358.333C300 369.384 295.61 379.982 287.796 387.796C279.982 395.61 269.384 400 258.334 400C247.283 400 236.685 395.61 228.871 387.796C221.057 379.982 216.667 369.384 216.667 358.333C216.667 347.283 221.057 336.685 228.871 328.871C236.685 321.056 247.283 316.667 258.334 316.667C269.384 316.667 279.982 321.056 287.796 328.871C295.61 336.685 300 347.283 300 358.333ZM541.667 400C552.718 400 563.316 395.61 571.13 387.796C578.944 379.982 583.334 369.384 583.334 358.333C583.334 347.283 578.944 336.685 571.13 328.871C563.316 321.056 552.718 316.667 541.667 316.667C530.616 316.667 520.018 321.056 512.204 328.871C504.39 336.685 500 347.283 500 358.333C500 369.384 504.39 379.982 512.204 387.796C520.018 395.61 530.616 400 541.667 400Z" fill="#545454"/>
</svg>
