<svg width="800" height="800" viewBox="0 0 800 800" fill="none" xmlns="http://www.w3.org/2000/svg">
<path d="M518.45 568.944C515.765 570.975 512.697 572.441 509.431 573.257C506.165 574.073 502.768 574.22 499.444 573.691C496.119 573.162 492.936 571.967 490.084 570.178C487.233 568.388 484.772 566.041 482.85 563.278C477.191 557.05 470.787 551.542 463.783 546.878C444.987 534.4 422.877 527.85 400.317 528.078C371.817 528.078 350.75 537.511 336.85 546.811C329.847 551.476 323.443 556.984 317.783 563.211L317.083 564.078C313.083 569.369 307.145 572.854 300.575 573.767C294.005 574.679 287.341 572.945 282.05 568.944C276.759 564.944 273.274 559.006 272.361 552.436C271.449 545.866 273.183 539.202 277.183 533.911L278.083 532.778C278.517 532.244 279.083 531.511 279.817 530.678C281.283 529.011 283.317 526.711 285.95 524.078C293.035 517.045 300.795 510.725 309.117 505.211C336.133 487.279 367.892 477.83 400.317 478.078C432.742 477.83 464.501 487.279 491.517 505.211C499.839 510.726 507.598 517.045 514.683 524.078C517.461 526.834 520.087 529.738 522.55 532.778C531.183 543.844 529.983 560.278 518.45 568.944Z" fill="#545454"/>
<path fill-rule="evenodd" clip-rule="evenodd" d="M400 33.3333C197.5 33.3333 33.333 197.5 33.333 400C33.333 602.5 197.5 766.667 400 766.667C602.5 766.667 766.666 602.5 766.666 400C766.666 197.5 602.5 33.3333 400 33.3333ZM83.333 400C83.333 316.015 116.696 235.469 176.083 176.083C235.469 116.696 316.014 83.3333 400 83.3333C483.985 83.3333 564.53 116.696 623.917 176.083C683.303 235.469 716.666 316.015 716.666 400C716.666 483.985 683.303 564.531 623.917 623.917C564.53 683.304 483.985 716.667 400 716.667C316.014 716.667 235.469 683.304 176.083 623.917C116.696 564.531 83.333 483.985 83.333 400Z" fill="#545454"/>
<path d="M300 358.333C300 369.384 295.61 379.982 287.796 387.796C279.982 395.61 269.384 400 258.334 400C247.283 400 236.685 395.61 228.871 387.796C221.057 379.982 216.667 369.384 216.667 358.333C216.667 347.283 221.057 336.685 228.871 328.871C236.685 321.056 247.283 316.667 258.334 316.667C269.384 316.667 279.982 321.056 287.796 328.871C295.61 336.685 300 347.283 300 358.333ZM541.667 400C552.718 400 563.316 395.61 571.13 387.796C578.944 379.982 583.334 369.384 583.334 358.333C583.334 347.283 578.944 336.685 571.13 328.871C563.316 321.056 552.718 316.667 541.667 316.667C530.616 316.667 520.018 321.056 512.204 328.871C504.39 336.685 500 347.283 500 358.333C500 369.384 504.39 379.982 512.204 387.796C520.018 395.61 530.616 400 541.667 400Z" fill="#545454"/>
</svg>
