<svg width="156" height="156" viewBox="0 0 156 156" fill="none" xmlns="http://www.w3.org/2000/svg">
<circle cx="78" cy="78" r="76.5" transform="matrix(1 0 0 -1 0 156)" stroke="black" stroke-width="3"/>
<circle cx="72" cy="72" r="69" transform="matrix(1 0 0 -1 6 150)" stroke="black" stroke-width="6"/>
<path fill-rule="evenodd" clip-rule="evenodd" d="M75.1071 28H80.8929H103C104.105 28 105 28.8954 105 30V32C105 33.1046 104.105 34 103 34H82.8929C81.7883 34 80.8929 34.8954 80.8929 36V40H75.1071V36C75.1071 34.8954 74.2117 34 73.1071 34H53C51.8954 34 51 33.1046 51 32V30C51 28.8954 51.8954 28 53 28H75.1071ZM75.1071 46V40H53C51.8954 40 51 40.8954 51 42V56H15.7555C13.3234 62.8811 12 70.286 12 78C12 85.714 13.3234 93.1189 15.7555 100H51V126C51 127.105 51.8954 128 53 128H55C56.1046 128 57 127.105 57 126V100H63V113C63 121.284 69.7157 128 78 128C86.2843 128 93 121.284 93 113V100H99V126C99 127.105 99.8954 128 101 128H103C104.105 128 105 127.105 105 126V100H140.244C142.677 93.1189 144 85.714 144 78C144 70.286 142.677 62.8811 140.244 56H105V44.5V42C105 40.8954 104.105 40 103 40H80.8929V46H75.1071ZM75.1071 56V46H59C57.8954 46 57 46.8954 57 48V56H51V100H57V56H63V58V100H69V112.546C69 114.77 69.823 116.914 71.3104 118.567C74.8855 122.539 81.1145 122.539 84.6896 118.567C86.177 116.914 87 114.77 87 112.546V100H93V56H99V100H105V56H99V48C99 46.8954 98.1046 46 97 46H80.8929V56H75.1071ZM75.1071 100H69V58C69 57.2987 68.8797 56.6256 68.6586 56H75.1071V100ZM80.8929 100V56H87.3414C87.1203 56.6256 87 57.2987 87 58V100H80.8929ZM80.8929 100H75.1071V114C75.1071 115.105 76.0026 116 77.1071 116H78.8929C79.9974 116 80.8929 115.105 80.8929 114V100ZM68.6586 56C67.8349 53.6696 65.6124 52 63 52V56H68.6586ZM87.3414 56C88.1651 53.6696 90.3876 52 93 52V56H87.3414ZM27 73H37V83H27V73ZM119 73H129V83H119V73Z" fill="black"/>
</svg>
