<svg width="156" height="156" viewBox="0 0 156 156" fill="none" xmlns="http://www.w3.org/2000/svg">
<circle cx="78" cy="78" r="76.5" transform="matrix(1 0 0 -1 0 156)" stroke="white" stroke-width="3"/>
<circle cx="72" cy="72" r="69" transform="matrix(1 0 0 -1 6 150)" stroke="white" stroke-width="6"/>
<path fill-rule="evenodd" clip-rule="evenodd" d="M75.1069 28H80.8931H103C104.104 28 105 28.8954 105 30V32C105 33.1046 104.104 34 103 34H82.8931C81.7881 34 80.8931 34.8954 80.8931 36V40H75.1069V36C75.1069 34.8954 74.2119 34 73.1069 34H53C51.8955 34 51 33.1046 51 32V30C51 28.8954 51.8955 28 53 28H75.1069ZM75.1069 46V40H53C51.8955 40 51 40.8954 51 42V56H15.7554C13.3232 62.8812 12 70.286 12 78C12 85.714 13.3232 93.1188 15.7554 100H51V126C51 127.105 51.8955 128 53 128H55C56.1045 128 57 127.105 57 126V100H63V113C63 121.284 69.7158 128 78 128C86.2842 128 93 121.284 93 113V100H99V126C99 127.105 99.8955 128 101 128H103C104.104 128 105 127.105 105 126V100H140.245C142.677 93.1188 144 85.714 144 78C144 70.286 142.677 62.8812 140.245 56H105V44.5V42C105 40.8954 104.104 40 103 40H80.8931V46H75.1069ZM75.1069 56V46H59C57.8955 46 57 46.8954 57 48V56H51V100H57V56H63V58V100H69V112.546C69 114.77 69.8228 116.914 71.3105 118.567C74.8857 122.539 81.1143 122.539 84.6895 118.567C86.1772 116.914 87 114.77 87 112.546V100H93V56H99V100H105V56H99V48C99 46.8954 98.1045 46 97 46H80.8931V56H75.1069ZM75.1069 100H69V58C69 57.2987 68.8799 56.6255 68.6587 56H75.1069V100ZM80.8931 100V56H87.3413C87.1201 56.6255 87 57.2987 87 58V100H80.8931ZM80.8931 100H75.1069V114C75.1069 115.105 76.0024 116 77.1069 116H78.8931C79.9976 116 80.8931 115.105 80.8931 114V100ZM68.6587 56C67.835 53.6696 65.6123 52 63 52V56H68.6587ZM87.3413 56C88.165 53.6696 90.3877 52 93 52V56H87.3413ZM27 73H37V83H27V73ZM119 73H129V83H119V73Z" fill="white"/>
</svg>
